<?xml version="1.0" standalone="no"?>
<!DOCTYPE svg PUBLIC "-//W3C//DTD SVG 1.1//EN" "http://www.w3.org/Graphics/SVG/1.1/DTD/svg11.dtd" >
<svg>
<metadata>
Created by FontForge 20110222 at Mon Nov  4 02:55:39 2013
 By Orthosie Webhosting
</metadata>
<defs>
<font id="VAGRoundedBoldRegular" horiz-adv-x="268" >
  <font-face 
    font-family="VAGRoundedBoldRegular"
    font-weight="400"
    font-stretch="normal"
    units-per-em="1000"
    panose-1="0 0 0 0 0 0 0 0 0 0"
    ascent="800"
    descent="-200"
    x-height="532"
    cap-height="717"
    bbox="-150 -218 1060 938"
    underline-thickness="50"
    underline-position="-55"
    unicode-range="U+0020-F002"
  />
<missing-glyph 
 />
    <glyph glyph-name=".notdef" 
 />
    <glyph glyph-name="glyph1" horiz-adv-x="0" 
 />
    <glyph glyph-name="glyph2" 
 />
    <glyph glyph-name="space" unicode=" " 
 />
    <glyph glyph-name="space" unicode="&#xa0;" 
 />
    <glyph glyph-name="exclam" unicode="!" horiz-adv-x="334" 
d="M167 -12q-32 0 -55 22.5t-23 54.5t23 55t55 23t55 -23t23 -55t-23 -54.5t-55 -22.5v0zM95 271v385q0 31 20.5 49t51.5 18q30 0 51 -18.5t21 -49.5v-384q0 -32 -21 -50.5t-51 -18.5q-31 0 -51.5 18.5t-20.5 49.5v1z" />
    <glyph glyph-name="quotedbl" unicode="&#x22;" horiz-adv-x="444" 
d="M71 494v170q0 26 16 42.5t44 16.5t44 -16.5t16 -43.5v-169q0 -28 -16 -44.5t-44 -16.5t-44 16.5t-16 43.5v1zM253 494v170q0 26 16 42.5t44 16.5t44 -16.5t16 -43.5v-169q0 -28 -16 -44.5t-44 -16.5t-44 16.5t-16 43.5v1z" />
    <glyph glyph-name="numbersign" unicode="#" horiz-adv-x="600" 
d="M148 299l16 114h-86q-25 -1 -36.5 14t-11.5 33t11.5 33t36.5 15l100 1l22 161q4 26 16 36.5t34 10.5q18 0 32 -11t14 -29v-7.5v-3.5q0 -2 -0.5 -4.5t-1.5 -8.5l-20 -144h96l22 161q4 26 16 36.5t34 10.5q18 0 32 -11t14 -29v-7.5v-3.5q0 -2 -0.5 -4.5t-1.5 -8.5l-20 -144
h86q25 -1 36.5 -16t11.5 -33t-11.5 -33t-36.5 -15l-100 1l-16 -114h86q25 -1 36.5 -16t11.5 -33t-11.5 -33t-36.5 -15l-100 1l-22 -161q-4 -28 -15.5 -38t-34.5 -10q-18 0 -32 10.5t-14 28.5v8v3q0 2 0.5 4.5t1.5 8.5l20 146h-96l-22 -161q-4 -28 -15.5 -38t-34.5 -10
q-18 0 -32 10.5t-14 28.5v8v3q0 2 0.5 4.5t1.5 8.5l20 146h-86q-25 -1 -36.5 14t-11.5 33t11.5 33t36.5 15l100 1v0zM261 413l-16 -114h95l16 114h-95v0z" />
    <glyph glyph-name="dollar" unicode="$" horiz-adv-x="537" 
d="M237 133v167q-1 -1 -2.5 -0.5t-2.5 0.5q-11 4 -22.5 7t-23.5 7q-61 19 -112.5 56t-51.5 126q0 96 63 155.5t152 69.5v3v29q0 19 3.5 32.5t23.5 13.5t23.5 -13.5t3.5 -33.5v-30q15 -1 33 -3.5t37 -7.5q39 -9 72 -30t33 -58q0 -29 -18 -51.5t-49 -22.5q-8 0 -15 1.5
t-14 3.5l-14 4t-14 5q-11 4 -23.5 7.5t-27.5 5.5v-132q15 -5 30.5 -9.5t31.5 -10.5q62 -21 113.5 -65t51.5 -140q0 -100 -66.5 -160.5t-160.5 -67.5v-3v-29v-1.5v-1.5q0 -16 -4 -30t-23 -14t-23 14t-4 30v1.5v1.5v31q-18 0 -38.5 2t-41.5 6q-52 8 -95 31.5t-43 69.5
q0 29 18 50t49 21q18 0 37.5 -6t40.5 -13q17 -6 35.5 -11.5t37.5 -7.5v1zM291 283v-146q32 7 48.5 29t16.5 51q0 25 -18 40t-47 25v1zM237 462v114q-22 -7 -37.5 -22.5t-15.5 -39.5q0 -19 14.5 -31.5t38.5 -21.5v1z" />
    <glyph glyph-name="percent" unicode="%" horiz-adv-x="722" 
d="M149 74l331 624q2 3 3.5 6t3.5 5q8 12 16.5 16t22.5 4q23 0 41 -16.5t18 -39.5v-1.5v-1.5q0 -5 -1.5 -11t-6.5 -16l-336 -628l-7 -10.5t-6 -7.5q-6 -7 -13 -11t-19 -4q-3 0 -5.5 0.5t-5.5 0.5q-17 5 -31.5 19.5t-14.5 33.5q0 8 2 16t5 14q1 2 1.5 4t1.5 3v1zM537 -12
q-67 0 -110.5 47.5t-43.5 112.5t43.5 113.5t110.5 48.5t110.5 -48.5t43.5 -113.5t-43.5 -112.5t-110.5 -47.5v0zM537 90q25 -1 38.5 16.5t13.5 41.5t-13.5 42t-38.5 18t-38.5 -18t-13.5 -42t13.5 -41.5t38.5 -17.5v1zM185 401q-67 -1 -110.5 47t-43.5 113t43.5 113.5
t110.5 48.5t110.5 -48.5t43.5 -113.5t-43.5 -113t-110.5 -48v1zM185 503q25 -1 38.5 16.5t13.5 41.5t-13.5 42t-38.5 18t-38.5 -18t-13.5 -42t13.5 -41.5t38.5 -17.5v1z" />
    <glyph glyph-name="ampersand" unicode="&#x26;" horiz-adv-x="704" 
d="M396 392l105 -116l39 45q7 7 13.5 14t12.5 12q11 9 23 14t27 5q22 0 38.5 -17t16.5 -46q0 -20 -15.5 -44t-39.5 -51l-25 -26l68 -77q3 -5 5.5 -8t5.5 -6q5 -8 8 -16.5t3 -20.5q0 -25 -20.5 -45.5t-49.5 -20.5q-17 0 -29.5 5.5t-23.5 16.5l-69 73q-49 -44 -101 -69.5
t-119 -25.5q-100 0 -172.5 55t-72.5 160q0 74 45 128.5t106 88.5q-29 29 -47.5 61t-18.5 74q0 82 62 123.5t137 44.5h5.5h5.5q12 0 24 -1t24 -4q59 -11 107.5 -48.5t48.5 -103.5q0 -60 -39.5 -105t-87.5 -70v1zM399 178l-145 161q-34 -23 -60 -51t-26 -71q0 -47 29 -72.5
t75 -25.5q35 0 61 11.5t51 32.5q3 3 7 6.5t8 7.5v1zM385 552q0 24 -13.5 37t-30.5 17q-6 2 -11.5 2.5t-10.5 0.5q-4 0 -8 -0.5t-7 -1.5q-17 -5 -31 -17.5t-14 -30.5q0 -8 1.5 -15.5t4.5 -14.5q6 -12 17.5 -25t29.5 -31q5 3 11 6t11 6q19 12 35 28.5t16 37.5v1z" />
    <glyph glyph-name="quotesingle" unicode="'" horiz-adv-x="240" 
d="M60 494v170q0 26 16 42.5t44 16.5t44 -16.5t16 -43.5v-169q0 -28 -16 -44.5t-44 -16.5t-44 16.5t-16 43.5v1z" />
    <glyph glyph-name="parenleft" unicode="(" horiz-adv-x="241" 
d="M172 724q25 -1 44.5 -17t19.5 -42q0 -5 -2.5 -14t-5.5 -19q0 -2 -1 -4t-1 -5q-3 -7 -5.5 -13.5t-3.5 -10.5q-25 -76 -38.5 -155.5t-13.5 -159.5q0 -29 1.5 -59t5.5 -61q5 -45 15 -90t24 -85q2 -4 5 -13.5t7 -19.5q0 -2 0.5 -3.5t1.5 -2.5q4 -13 7.5 -24.5t3.5 -15.5
q0 -29 -17.5 -46.5t-46.5 -17.5q-18 0 -30.5 11t-21.5 27q-21 37 -37 92.5t-26 116.5q-9 53 -13.5 103.5t-4.5 87.5q0 33 5.5 88.5t15.5 116.5q13 69 32.5 131t46.5 90q4 5 9.5 7.5t11.5 4.5q3 0 6 0.5t6 0.5v1z" />
    <glyph glyph-name="parenright" unicode=")" horiz-adv-x="241" 
d="M69 -154q-25 0 -44.5 16t-19.5 42q0 5 2.5 14t5.5 19q0 2 1 4t1 5q3 7 5.5 13.5t3.5 10.5q25 76 38.5 155t13.5 159q0 29 -1.5 59t-5.5 61q-5 45 -15 90t-24 86q-2 4 -5 13.5t-7 19.5q0 2 -0.5 3.5t-1.5 2.5q-4 13 -7.5 24.5t-3.5 15.5q0 29 18 46.5t46 17.5
q18 0 30.5 -11t21.5 -27q21 -37 37 -93t26 -117q9 -53 13.5 -103.5t4.5 -87.5q0 -33 -5.5 -88.5t-15.5 -116.5q-13 -69 -32.5 -130.5t-46.5 -89.5q-4 -5 -9.5 -7.5t-11.5 -4.5q-3 0 -6 -0.5t-6 -0.5v0z" />
    <glyph glyph-name="asterisk" unicode="*" horiz-adv-x="389" 
d="M194 718q20 -1 35.5 -11.5t15.5 -35.5q0 -7 -1.5 -16.5t-2.5 -19.5q0 -1 -0.5 -2.5t-0.5 -2.5q-1 -6 -1.5 -11.5t-1.5 -10.5q1 1 2 1.5t2 1.5q14 10 25.5 19.5t23.5 14.5q4 2 8.5 3t9.5 1q23 0 37.5 -18t14.5 -40q0 -21 -16.5 -31.5t-35.5 -18.5q-2 -1 -3.5 -1.5
t-3.5 -1.5q-5 -2 -10.5 -4t-10.5 -5q4 -2 9 -4l10 -4q2 -1 4 -1.5t5 -1.5q19 -8 35.5 -18.5t16.5 -31.5v-1.5v-1.5q-1 -21 -15.5 -38.5t-36.5 -17.5q-5 0 -9.5 1t-8.5 3q-11 5 -22 14t-24 19q-2 1 -3.5 2.5t-3.5 2.5q1 -5 1.5 -10.5t1.5 -11.5q0 -1 0.5 -2.5t0.5 -2.5
q1 -10 2.5 -19.5t1.5 -16.5q0 -25 -15.5 -35.5t-35.5 -10.5t-35.5 10.5t-15.5 35.5q0 7 1.5 16.5t2.5 19.5q1 1 1 2.5v2.5q1 6 2 11.5t1 10.5q-2 -1 -3.5 -2.5t-3.5 -2.5q-17 -12 -30.5 -22.5t-27.5 -13.5q-2 -1 -3.5 -1h-3.5q-22 0 -35.5 17.5t-14.5 38.5v1.5v1.5
q0 21 16 31.5t35 17.5q2 1 4.5 2t4.5 2l10 4t9 4q-5 3 -10 5t-11 4q-2 1 -3.5 2t-3.5 1q-19 8 -35 18.5t-16 31.5q0 22 13.5 40t36.5 18h3.5t3.5 -1q14 -3 28.5 -14t32.5 -23q1 -1 2 -1.5t2 -1.5q0 5 -1 10.5t-2 11.5v2.5t-1 2.5q-1 10 -2.5 19.5t-1.5 16.5q0 25 15.5 35.5
t35.5 10.5v1z" />
    <glyph glyph-name="plus" unicode="+" horiz-adv-x="600" 
d="M240 313v145q0 26 16 42.5t44 16.5t44 -16.5t16 -43.5v-144h145q28 -1 44 -17.5t16 -43.5t-16 -43.5t-44 -16.5l-145 1v-145q0 -28 -16 -44t-44 -16t-44 16t-16 43v146h-145q-28 -1 -44 15.5t-16 43.5t16 43.5t44 16.5l145 1v0z" />
    <glyph glyph-name="comma" unicode="," 
d="M199 50l-84 -150q-5 -10 -13.5 -17t-17.5 -11q-7 -3 -14 -4.5t-12 -1.5q-27 0 -47 19.5t-20 46.5q0 10 3.5 20t7.5 20l83 150q5 9 13.5 15.5t17.5 10.5q8 4 15 5.5t12 1.5q27 0 48 -19.5t21 -46.5q0 -9 -3.5 -18t-7.5 -17q0 -1 -0.5 -2.5t-1.5 -2.5v1z" />
    <glyph glyph-name="hyphen" unicode="-" horiz-adv-x="389" 
d="M88 353h213q28 -3 42.5 -20.5t14.5 -44.5q0 -25 -14.5 -42.5t-42.5 -19.5l-213 1q-28 1 -42.5 18.5t-14.5 42.5q0 27 14.5 44.5t42.5 19.5v1z" />
    <glyph glyph-name="period" unicode="." 
d="M56 66q0 31 23 54t55 23t55 -23t23 -55t-23 -54.5t-55 -22.5t-55 22.5t-23 54.5v1z" />
    <glyph glyph-name="slash" unicode="/" horiz-adv-x="407" 
d="M17 71l267 616q7 16 19.5 26t36.5 10q25 0 42 -16t17 -39q0 -2 -2 -9.5t-7 -18.5l-266 -615q-7 -17 -19.5 -27t-36.5 -10q-25 0 -42.5 15.5t-17.5 38.5q0 2 2.5 10t6.5 18v1z" />
    <glyph glyph-name="zero" unicode="0" horiz-adv-x="574" 
d="M287 -12q-126 0 -185 88t-74 193q-3 22 -4.5 43.5t-1.5 42.5t1.5 42.5t4.5 43.5q15 105 74 193.5t185 88.5t185 -88.5t74 -193.5q3 -22 4.5 -43.5t1.5 -42.5t-1.5 -42.5t-4.5 -43.5q-15 -105 -74 -193t-185 -88v0zM287 124q49 -1 71.5 40.5t30.5 90.5q5 28 6 54.5t1 45.5
t-1 44t-5 52q-7 51 -29.5 93.5t-73.5 42.5t-73.5 -42.5t-29.5 -93.5q-4 -27 -5 -52t-1 -44t1 -45.5t6 -54.5q8 -49 30.5 -90.5t71.5 -41.5v1z" />
    <glyph glyph-name="one" unicode="1" horiz-adv-x="370" 
d="M152 72v502h-59q-35 -1 -51 19.5t-17 45.5v1.5v1.5q0 26 18 47.5t50 21.5l142 1q32 -1 49.5 -21.5t17.5 -50.5v-568q0 -38 -21.5 -58t-53.5 -20t-53.5 20t-21.5 57v1z" />
    <glyph glyph-name="two" unicode="2" horiz-adv-x="574" 
d="M268 132h183q33 -1 55.5 -16.5t22.5 -50.5q0 -34 -21.5 -49.5t-50.5 -15.5h-334q-33 0 -55.5 15.5t-22.5 49.5q0 13 5.5 24t11.5 20l3.5 3.5t2.5 3.5q19 23 39 45.5t40 44.5q1 2 2.5 3.5l3.5 3.5q42 48 84 97.5t80 104.5q14 20 24.5 43t10.5 50q0 31 -20.5 54t-51.5 23
q-43 0 -59.5 -25.5t-25.5 -55.5q-1 -2 -1.5 -3.5t-0.5 -3.5q-9 -29 -22 -51.5t-47 -22.5q-36 0 -54.5 22t-18.5 51q0 95 71.5 161t163.5 66t157 -56.5t65 -151.5q0 -72 -46 -142t-101 -134q-25 -29 -49 -56t-44 -52v1z" />
    <glyph glyph-name="three" unicode="3" horiz-adv-x="574" 
d="M271 724q86 -1 136.5 -42.5t67.5 -91.5q5 -13 7 -25.5t2 -24.5q0 -47 -20.5 -87t-61.5 -66q54 -25 88 -72.5t34 -106.5q0 -90 -72.5 -155t-179.5 -65q-87 0 -146 41.5t-82 91.5q-6 14 -9 27.5t-3 26.5q0 26 20.5 44t44.5 22q3 1 6 1h6q20 0 32 -12t22 -28q3 -5 6 -9.5
t6 -8.5q14 -22 35.5 -40.5t63.5 -18.5q39 0 66.5 26.5t27.5 66.5q0 53 -26.5 67t-58.5 19h-3.5t-2.5 1q-30 4 -54.5 15t-24.5 53q0 39 22 51t49 19t49 20t22 55q0 29 -19 48t-53 19q-36 0 -54 -15.5t-31 -33.5q-2 -3 -4 -5.5t-3 -4.5q-11 -16 -23.5 -27.5t-34.5 -11.5
q-31 0 -48 23t-17 51q0 4 0.5 8t0.5 8q10 55 74.5 100.5t142.5 45.5v1z" />
    <glyph glyph-name="four" unicode="4" horiz-adv-x="574" 
d="M327 157h-241q-30 -1 -46.5 13t-21.5 31q-1 3 -1.5 7t-0.5 7q0 13 3 22t7 16q1 1 2 3t2 3l224 407q17 29 40 43t62 14q44 0 79.5 -30t35.5 -98v-306h17q29 -1 49.5 -19t20.5 -48t-20.5 -48t-49.5 -18l-17 1v-85q0 -41 -17 -59.5t-55 -18.5t-55 18.5t-17 58.5v86v0z
M327 289v279h-2l-135 -279h137v0z" />
    <glyph glyph-name="five" unicode="5" horiz-adv-x="574" 
d="M250 574l-15 -106q12 2 24.5 4t25.5 4q6 0 12.5 0.5t12.5 0.5q91 0 149 -62.5t58 -150.5q0 -125 -67.5 -200.5t-197.5 -75.5q-18 0 -42 4t-50 11q-48 15 -88 45t-40 73q0 28 20 48t48 20q15 0 31.5 -10t35.5 -22t41 -22t47 -10q49 0 75.5 37t29.5 81q1 3 1 6.5v6.5
q0 45 -24.5 73t-71.5 28q-22 0 -36 -5t-26 -11l-1.5 -1.5t-1.5 -0.5q-11 -6 -23 -10.5t-30 -4.5q-20 0 -33.5 9t-20.5 20q-2 5 -3.5 9.5t-1.5 8.5q0 7 0.5 12.5t1.5 10.5v1.5v1.5q0 2 0.5 4t0.5 4l25 212q8 58 25 76t53 18l241 1q35 -1 54 -19t19 -45q0 -31 -12 -46.5
t-26 -22.5q-9 -4 -18 -5t-14 -1l-188 1v0z" />
    <glyph glyph-name="six" unicode="6" horiz-adv-x="574" 
d="M287 -12q-115 0 -183 73.5t-68 173.5q0 39 12.5 82t32.5 87q25 52 58 102.5t67 94.5q22 27 43.5 50t40.5 41q6 6 14.5 12t17.5 12q8 5 16 6t14 1q5 0 11.5 -2t12.5 -5q17 -9 31.5 -26.5t15.5 -36.5v-1.5v-1.5q0 -4 -1 -8t-3 -8q-3 -6 -7.5 -12t-9.5 -13q-13 -16 -29 -34
t-33 -36q-1 -2 -2.5 -3t-2.5 -2q-20 -23 -39 -44.5t-32 -40.5l2 -1q11 4 24.5 7t27.5 4h5.5h5.5q90 0 149.5 -67.5t59.5 -156.5q0 -97 -70 -172t-181 -75v0zM287 340q-43 -1 -69 -31t-26 -74q0 -42 25 -73t70 -31q43 0 69 30.5t26 73.5q0 40 -24 72t-71 32v1z" />
    <glyph glyph-name="seven" unicode="7" horiz-adv-x="538" 
d="M95 100l250 474h-256q-39 -1 -56 19.5t-18 45.5v1.5v1.5q0 26 16.5 47.5t57.5 21.5l362 1q27 -1 43 -15t23 -31q3 -7 4.5 -14t1.5 -13q0 -15 -7 -31t-16 -35l-248 -503q-7 -15 -13 -26t-11 -20q-11 -16 -24 -23t-36 -7q-31 0 -51 15t-27 33q-3 6 -4 11.5t-1 10.5
q0 3 0.5 6.5t0.5 6.5q1 5 3.5 10t5.5 12v1z" />
    <glyph glyph-name="eight" unicode="8" horiz-adv-x="574" 
d="M287 -12q-103 0 -175 63.5t-72 163.5q0 60 30 104t77 69q-35 26 -55.5 61t-20.5 82q0 88 63.5 140t152.5 52q87 0 152 -51.5t65 -140.5q0 -42 -20 -81t-57 -62q51 -25 79 -70t28 -103q0 -104 -73 -165.5t-174 -61.5v0zM287 326q-43 -1 -67 -30t-24 -71q0 -38 22.5 -69
t68.5 -31q43 0 67 31t24 69q0 47 -25 73.5t-66 26.5v1zM287 592q-35 -1 -53.5 -23t-18.5 -54q0 -34 19 -55t53 -21q35 0 54 21t19 55q0 32 -19 54t-54 22v1z" />
    <glyph glyph-name="nine" unicode="9" horiz-adv-x="574" 
d="M287 724q116 -1 183.5 -75t67.5 -174q0 -39 -12.5 -82t-32.5 -87q-25 -52 -58 -102.5t-67 -94.5q-22 -27 -43.5 -50t-40.5 -41q-6 -6 -14.5 -12t-17.5 -11q-8 -5 -16 -6t-14 -1q-5 0 -11.5 2t-12.5 5q-17 8 -31.5 25.5t-15.5 36.5v1.5v1.5q0 4 1 8t3 8q3 6 7.5 12t9.5 13
q13 16 29 34t33 36q1 2 2.5 3t2.5 2q20 23 39 44.5t32 40.5l-2 3q-11 -6 -24.5 -9t-27.5 -4h-5.5h-5.5q-90 0 -149.5 68t-59.5 156q0 98 70 173t181 75v1zM287 372q43 -1 69 29t26 74q0 42 -25 73t-70 31q-43 0 -69 -30t-26 -74q0 -40 24 -72t71 -32v1z" />
    <glyph glyph-name="colon" unicode=":" 
d="M56 66q0 31 23 54t55 23t55 -23t23 -55t-23 -54.5t-55 -22.5t-55 22.5t-23 54.5v1zM56 387q0 31 23 54t55 23t55 -23t23 -55t-23 -55t-55 -23t-55 23t-23 55v1z" />
    <glyph glyph-name="semicolon" unicode=";" 
d="M143 156q27 -1 48 -20.5t21 -46.5q0 -9 -3.5 -18t-7.5 -17q0 -1 -0.5 -2.5t-1.5 -2.5l-84 -149q-5 -10 -13.5 -17t-17.5 -11q-7 -3 -14 -4.5t-12 -1.5q-27 0 -47 19.5t-20 46.5q0 10 3.5 20t7.5 20l83 150q5 9 13.5 15.5t17.5 10.5q8 4 15 5.5t12 1.5v1zM56 387
q0 31 23 54t55 23t55 -23t23 -55t-23 -55t-55 -23t-55 23t-23 55v1z" />
    <glyph glyph-name="less" unicode="&#x3c;" horiz-adv-x="600" 
d="M196 253l333 -139q21 -10 28.5 -23t7.5 -29q0 -31 -14.5 -46.5t-33.5 -15.5q-7 0 -17.5 1.5t-32.5 11.5l-395 183q-16 6 -26.5 19.5t-10.5 36.5t10.5 36.5t26.5 20.5l395 182q22 10 32.5 12t17.5 2q19 0 33.5 -15.5t14.5 -47.5q0 -16 -7.5 -29t-28.5 -22l-333 -138v0z
" />
    <glyph glyph-name="equal" unicode="=" horiz-adv-x="600" 
d="M95 201h410q28 -1 44 -17.5t16 -43.5t-16 -43.5t-44 -16.5l-410 1q-28 -1 -44 15.5t-16 43.5t16 43.5t44 16.5v1zM95 425h410q28 -1 44 -17.5t16 -43.5t-16 -43.5t-44 -16.5l-410 1q-28 -1 -44 15.5t-16 43.5t16 43.5t44 16.5v1z" />
    <glyph glyph-name="greater" unicode="&#x3e;" horiz-adv-x="600" 
d="M71 114l333 139l-333 139q-21 8 -28.5 21t-7.5 29q0 32 14.5 47.5t33.5 15.5q7 0 17.5 -2t32.5 -13l395 -180q16 -8 26.5 -21.5t10.5 -36.5t-10.5 -36.5t-26.5 -20.5l-395 -181q-22 -11 -32.5 -12.5t-17.5 -1.5q-19 0 -33.5 15.5t-14.5 46.5q0 16 7.5 29t28.5 22v1z" />
    <glyph glyph-name="question" unicode="?" horiz-adv-x="481" 
d="M219 -12q-32 0 -55 22.5t-23 54.5t23 55t55 23t55 -23t23 -55t-23 -54.5t-55 -22.5v0zM147 272v100q0 22 19 31.5t45 15.5q4 2 8.5 3t8.5 2q30 8 55 25t25 60q0 33 -25.5 54.5t-57.5 21.5q-31 0 -51.5 -15.5t-36.5 -33.5q-3 -4 -5.5 -7t-5.5 -6q-13 -15 -27.5 -26
t-34.5 -11q-27 0 -44 19.5t-17 52.5q0 60 47.5 99.5t104.5 55.5q18 5 36 7.5t34 2.5q97 0 168 -56.5t71 -157.5q0 -83 -48 -132.5t-125 -69.5v-35q0 -31 -20 -50.5t-52 -19.5q-34 0 -53 19.5t-19 49.5v1z" />
    <glyph glyph-name="at" unicode="@" horiz-adv-x="800" 
d="M400 724q140 -1 254 -92t114 -230q0 -83 -42 -134.5t-92 -79.5q-38 -21 -72.5 -30t-50.5 -9q-38 0 -53.5 14.5t-15.5 34.5l-2 1q-19 -24 -47 -37t-58 -13q-62 0 -104 52.5t-44 115.5v3.5v2.5q0 86 53 154.5t142 68.5q37 0 67 -14t50 -46l2 1v12q0 22 13 34.5t43 12.5
q19 0 32.5 -7t13.5 -21q0 -8 -1 -14l-2 -12q0 -2 -0.5 -3t-0.5 -3l-40 -181q-1 -5 -2 -10.5t-1 -11.5q-1 -3 -1 -6v-6q0 -9 5.5 -15t17.5 -6q8 0 20 4.5t24 14.5q21 17 38.5 49.5t17.5 83.5q0 107 -84.5 169t-193.5 62q-115 0 -196.5 -81t-81.5 -197q0 -115 81.5 -196.5
t196.5 -81.5q54 0 107 11t101 36q6 3 13 8.5t14 11.5l1 0.5t1 1.5q10 8 20 14.5t18 6.5h4.5t5.5 -1q10 -2 18.5 -9.5t8.5 -26.5q0 -6 -1.5 -11.5t-3.5 -10.5q-3 -7 -9 -15t-13 -17q-56 -51 -127.5 -69t-146.5 -19h-5h-6q-152 0 -260 107.5t-108 259.5t108 260t260 108v1z
M359 252q44 -1 72 32t28 75q0 34 -20 59.5t-56 25.5q-35 0 -61 -28.5t-32 -61.5q0 -5 -0.5 -9t-0.5 -8v-2.5v-2.5q2 -31 19 -56t51 -25v1z" />
    <glyph glyph-name="A" unicode="A" horiz-adv-x="630" 
d="M9 97l201 544q13 34 41 58t66 24q40 0 67 -23.5t40 -59.5l196 -543q5 -13 6.5 -23t1.5 -15q0 -29 -20.5 -47t-48.5 -18q-31 0 -48 14.5t-25 36.5l-30 95h-278l-30 -93q-7 -24 -24 -38.5t-48 -14.5q-30 0 -52 19.5t-22 49.5q0 8 1 14t3 11q1 2 1.5 4.5t1.5 3.5v1zM316 568
l-95 -290h190l-93 290h-2v0z" />
    <glyph glyph-name="B" unicode="B" horiz-adv-x="574" 
d="M45 76v561q0 35 22.5 54.5t56.5 19.5l192 1q78 -1 133 -49t55 -128q0 -52 -22.5 -88t-70.5 -59v-1q64 -10 108 -58t44 -113q0 -106 -64 -161t-168 -55h-206q-34 0 -57 20t-23 55v1zM195 298v-166h118q41 -1 67.5 21.5t26.5 64.5q0 35 -26.5 57t-79.5 22l-106 1v0z
M195 580v-150h78q37 -1 59 20t22 58q0 35 -24 53t-57 18l-78 1v0z" />
    <glyph glyph-name="C" unicode="C" horiz-adv-x="611" 
d="M17 356q0 155 95.5 261t248.5 106q18 0 40.5 -2t45.5 -7q49 -10 89 -34.5t40 -68.5q0 -27 -17 -47t-45 -20q-6 0 -11.5 1t-10.5 2q-9 3 -18.5 6.5t-19.5 8.5q-17 6 -39 11.5t-54 5.5q-93 0 -140.5 -67.5t-47.5 -159.5q0 -89 48 -155t140 -66q32 0 55 6.5t41 14.5
q13 6 25 11.5t23 7.5q4 1 7.5 1.5t7.5 0.5q23 0 37.5 -12.5t21.5 -28.5q4 -7 5.5 -14t1.5 -13q0 -48 -41.5 -73t-90.5 -34q-26 -6 -50 -8t-43 -2q-152 0 -248 106t-96 261v1z" />
    <glyph glyph-name="D" unicode="D" horiz-adv-x="667" 
d="M45 75v560q0 34 21.5 55t55.5 21l166 1q168 -1 260 -100.5t92 -266.5q0 -157 -93.5 -251t-248.5 -94h-174h-11t-12 2q-21 5 -38.5 22t-17.5 50v1zM195 574v-436h101q97 -1 142.5 61.5t45.5 152.5q0 96 -47 158.5t-151 62.5l-91 1v0z" />
    <glyph glyph-name="E" unicode="E" horiz-adv-x="463" 
d="M45 75v550q0 37 19 61.5t59 24.5l248 1q36 -1 53.5 -22.5t17.5 -47.5v-1.5v-1.5q-1 -25 -19 -45.5t-52 -20.5l-176 1v-146h164q37 -1 55 -22.5t18 -47.5v-1.5v-1.5q-1 -25 -19.5 -45.5t-53.5 -20.5l-164 1v-152h185q36 -1 53.5 -22.5t17.5 -47.5v-1.5v-1.5
q-1 -25 -19 -45t-52 -20h-258q-33 0 -55 20t-22 54v1z" />
    <glyph glyph-name="F" unicode="F" horiz-adv-x="444" 
d="M45 72v562q0 30 20.5 53.5t57.5 23.5l256 1q33 -1 50 -22.5t17 -47.5v-1.5v-1.5q-1 -25 -17.5 -45.5t-49.5 -20.5l-184 1v-146h155q36 -1 54 -22t18 -47t-18 -48t-54 -22l-155 1v-218q0 -38 -21.5 -58t-53.5 -20t-53.5 20t-21.5 57v1z" />
    <glyph glyph-name="G" unicode="G" horiz-adv-x="704" 
d="M429 422h170q47 -1 67.5 -25t20.5 -72q0 -145 -88 -241t-238 -96q-152 0 -248 106t-96 261q0 156 95.5 262t248.5 106q112 0 192 -43t83 -95v-1.5v-1.5q0 -32 -18 -51t-44 -19q-16 0 -29 5t-25 12q-7 5 -14 9.5t-15 10.5q-21 13 -51 24.5t-79 11.5q-94 0 -141 -69.5
t-47 -160.5t46.5 -160.5t141.5 -69.5q7 0 14 0.5t14 1.5q53 7 97.5 43.5t44.5 112.5l-102 1q-31 -1 -50.5 18.5t-19.5 50.5q0 32 21 50t49 18v1z" />
    <glyph glyph-name="H" unicode="H" horiz-adv-x="704" 
d="M45 72v568q0 37 21.5 57t53.5 20t53.5 -20t21.5 -58v-211h314v212q0 37 21.5 57t53.5 20t53.5 -20t21.5 -58v-567q0 -38 -21.5 -58t-53.5 -20t-53.5 20t-21.5 57v219h-314v-218q0 -38 -21.5 -58t-53.5 -20t-53.5 20t-21.5 57v1z" />
    <glyph glyph-name="I" unicode="I" horiz-adv-x="240" 
d="M45 72v568q0 37 21.5 57t53.5 20t53.5 -20t21.5 -58v-567q0 -38 -21.5 -58t-53.5 -20t-53.5 20t-21.5 57v1z" />
    <glyph glyph-name="J" unicode="J" horiz-adv-x="407" 
d="M368 640v-440q0 -111 -50.5 -156t-111.5 -54q-9 -1 -18 -1.5t-18 -0.5q-15 0 -32 1.5t-35 5.5q-44 9 -80 34t-36 72q0 3 0.5 7t1.5 7q5 18 18.5 32.5t34.5 14.5q10 0 19.5 -2.5t19.5 -7.5q5 -2 9.5 -4t9.5 -4q15 -7 30 -13t32 -6q30 0 41 17t14 37q1 8 1 15.5v14.5v431
q0 37 21.5 57t53.5 20t53.5 -20t21.5 -58v1z" />
    <glyph glyph-name="K" unicode="K" horiz-adv-x="611" 
d="M45 66v578q0 30 20.5 51.5t54.5 21.5q32 0 53.5 -19.5t21.5 -54.5v-215l246 262q2 1 3.5 3t4.5 4q8 7 20.5 13.5t29.5 6.5q29 0 51.5 -20t22.5 -52q0 -6 -1 -11.5t-3 -10.5q-5 -13 -16.5 -27t-28.5 -31l-189 -185l231 -241q4 -5 7 -8.5t7 -6.5q12 -14 20 -29t8 -33
q0 -35 -23.5 -51.5t-54.5 -16.5q-11 0 -21 3t-19 10q-9 6 -17.5 14t-18.5 19l-259 281v-255q0 -30 -20.5 -51t-54.5 -21q-32 0 -53.5 19t-21.5 52v1z" />
    <glyph glyph-name="L" unicode="L" horiz-adv-x="426" 
d="M45 82v558q0 37 21.5 57t53.5 20t53.5 -20t21.5 -58v-501h178q34 -1 51 -20t20 -41q1 -3 1 -5.5v-4.5v-0.5v-0.5v-0.5v-0.5q-1 -25 -20 -45t-52 -20h-250q-37 0 -57.5 22t-20.5 59v1z" />
    <glyph glyph-name="M" unicode="M" horiz-adv-x="870" 
d="M25 83l93 558q0 2 1 5l2 6q9 24 34.5 44.5t60.5 20.5q38 0 65 -22.5t35 -49.5l118 -395h2l118 396q8 26 35.5 48.5t64.5 22.5q35 0 60.5 -20.5t34.5 -44.5l2 -6t1 -6l93 -557q1 -5 1 -9.5v-8.5q0 -33 -21 -52t-51 -19q-38 0 -55.5 17t-22.5 52l-59 408h-2l-120 -419
q-1 -5 -3 -9.5t-4 -8.5q-8 -16 -25 -28t-48 -12t-48 12t-25 28q-2 4 -4 8.5t-3 8.5l-120 420h-2l-59 -407q-5 -36 -22.5 -53t-55.5 -17q-30 0 -51 19t-21 52v8.5t1 8.5v1z" />
    <glyph glyph-name="N" unicode="N" horiz-adv-x="685" 
d="M39 72v568q0 37 21.5 57t53.5 20q6 0 13 -1.5t14 -4.5q10 -5 20 -12t16 -15l317 -422h2v378q0 37 21.5 57t53.5 20t53.5 -20t21.5 -58v-567q0 -38 -21.5 -58t-53.5 -20q-6 0 -13 2l-14 4q-10 4 -20 11t-16 15l-317 419h-2v-373q0 -38 -21.5 -58t-53.5 -20t-53.5 20
t-21.5 57v1z" />
    <glyph glyph-name="O" unicode="O" horiz-adv-x="722" 
d="M361 -12q-152 0 -248 106t-96 261q0 156 95.5 262t248.5 106q151 0 247.5 -108t96.5 -260q0 -155 -95 -261t-249 -106v0zM361 126q95 -1 141.5 68.5t46.5 160.5t-47 160.5t-141 69.5t-141 -69.5t-47 -160.5t46.5 -160.5t141.5 -69.5v1z" />
    <glyph glyph-name="P" unicode="P" horiz-adv-x="556" 
d="M45 72v562q0 34 20.5 55.5t57.5 21.5l177 1q110 -1 183 -67t73 -173q0 -109 -73.5 -173t-176.5 -64l-111 1v-164q0 -38 -21.5 -58t-53.5 -20t-53.5 20t-21.5 57v1zM195 580v-212h102q47 -1 75 29.5t28 75.5t-28 75.5t-75 30.5l-102 1v0z" />
    <glyph glyph-name="Q" unicode="Q" horiz-adv-x="722" 
d="M594 -16l-57 48q-37 -22 -81 -33t-95 -11q-152 0 -248 106t-96 261q0 156 95.5 262t248.5 106q151 0 247.5 -108t96.5 -260q0 -66 -17 -125t-50 -106l57 -48q1 -2 2 -3l2 -2q13 -12 22 -25t9 -32q0 -25 -20.5 -43t-45.5 -19h-1.5h-1.5q-5 0 -10 0.5t-10 2.5
q-10 3 -21.5 10t-25.5 19v0zM476 267l49 -39q13 28 18.5 60.5t5.5 66.5q0 89 -47 159.5t-141 70.5t-141 -69.5t-47 -160.5t46.5 -160.5t141.5 -69.5q17 0 33 2t31 5l-36 36q-6 5 -11 12.5t-7 15.5q0 3 -0.5 5.5t-0.5 5.5q0 29 18.5 50.5t49.5 21.5q11 0 20 -3.5t18 -9.5v1z
" />
    <glyph glyph-name="R" unicode="R" horiz-adv-x="556" 
d="M45 72v562q0 35 20 56t57 21l176 1q116 -1 182.5 -55t66.5 -172q0 -82 -54 -129.5t-131 -59.5l170 -181q11 -12 15.5 -23t4.5 -22q0 -29 -21 -52.5t-54 -23.5q-6 0 -12.5 1t-12.5 3q-9 2 -17.5 7.5t-15.5 13.5l-222 270h-2v-217q0 -38 -21.5 -58t-53.5 -20t-53.5 20
t-21.5 57v1zM195 574v-177h103q41 -1 67 22.5t26 65.5q0 43 -26 65.5t-67 22.5l-103 1v0z" />
    <glyph glyph-name="S" unicode="S" horiz-adv-x="537" 
d="M270 724q16 -1 39 -3.5t48 -8.5q41 -10 75 -31t34 -58q0 -29 -18 -51.5t-49 -22.5q-7 0 -14.5 1t-14.5 3q-7 3 -14.5 5.5t-15.5 5.5q-16 6 -33.5 10.5t-40.5 4.5q-32 0 -57 -16.5t-25 -48.5q0 -26 26 -40.5t65 -25.5q18 -6 37 -11.5t39 -11.5q63 -22 115 -65.5t52 -140.5
q0 -107 -76 -169t-180 -62q-20 0 -47 2t-55 7q-53 9 -97 32.5t-44 69.5q0 29 18 50t49 21q18 0 37 -6t40 -13q21 -8 44 -14t47 -6q50 0 76 24.5t26 61.5q0 34 -32 50.5t-78 29.5l-28 8t-29 9q-63 19 -115 57t-52 125q0 105 74 166t174 61v1z" />
    <glyph glyph-name="T" unicode="T" horiz-adv-x="480" 
d="M165 72v502h-109q-35 -1 -50.5 19.5t-16.5 45.5v1.5v1.5q0 26 17.5 47.5t49.5 21.5l368 1q32 -1 50 -22.5t18 -47.5v-1.5v-1.5q-1 -25 -17 -45.5t-51 -20.5l-109 1v-502q0 -38 -21.5 -58t-53.5 -20t-53.5 20t-21.5 57v1z" />
    <glyph glyph-name="U" unicode="U" horiz-adv-x="685" 
d="M39 283v357q0 37 21.5 57t53.5 20t53.5 -20t21.5 -58v-348q0 -70 41.5 -118t112.5 -48q68 0 110.5 49.5t42.5 115.5v350q0 37 21.5 57t53.5 20t53.5 -20t21.5 -58v-356q0 -127 -89.5 -211t-213.5 -84q-125 0 -214.5 83.5t-89.5 210.5v1z" />
    <glyph glyph-name="V" unicode="V" horiz-adv-x="592" 
d="M222 52l-219 557q-2 3 -2.5 7t-1.5 8q-1 5 -1.5 10t-0.5 11q0 32 23 52t53 20q26 0 42 -14.5t26 -34.5l155 -415l155 416q10 19 26.5 33.5t41.5 14.5q30 0 53.5 -20t23.5 -52q0 -6 -0.5 -11t-1.5 -10l-2 -8t-3 -8l-219 -556q-10 -25 -25.5 -41.5t-48.5 -16.5t-48.5 16.5
t-25.5 40.5v1z" />
    <glyph glyph-name="W" unicode="W" horiz-adv-x="908" 
d="M139 72l-127 546q-1 4 -2 7.5t-1 6.5q-1 5 -1 9v10v2.5v2.5q2 23 21 42t50 19q36 0 54.5 -19.5t25.5 -52.5l85 -424h2l130 438q8 26 29 42t49 16t49 -16t29 -43l130 -437h2l85 425q7 32 25.5 51.5t54.5 19.5q31 0 50 -19t21 -42v-2.5v-2.5v-10t-1 -9q0 -3 -1 -6.5
t-2 -8.5l-127 -545q-7 -32 -32 -55t-67 -23q-37 0 -63.5 20.5t-35.5 51.5l-116 387h-2l-116 -386q-9 -32 -35.5 -52.5t-63.5 -20.5q-42 0 -66.5 23t-32.5 54v1z" />
    <glyph glyph-name="X" unicode="X" horiz-adv-x="612" 
d="M21 115l198 266l-162 220q-7 9 -11.5 20t-4.5 23q0 33 22 53t54 20h2.5h3.5q17 -2 33 -12.5t26 -24.5l124 -175l124 176q10 13 26 23.5t33 12.5h3.5h2.5q32 0 54 -20t22 -53q0 -12 -4 -23t-12 -21l-162 -219l198 -266l1.5 -3t0.5 -2q6 -8 10.5 -20.5t4.5 -26.5
q0 -31 -21.5 -50t-54.5 -19q-20 0 -35.5 8t-26.5 24l-164 229l-164 -228q-11 -17 -26.5 -25t-35.5 -8q-33 0 -54.5 19t-21.5 50q0 14 4.5 26.5t10.5 20.5q0 1 0.5 2t1.5 2v1z" />
    <glyph glyph-name="Y" unicode="Y" horiz-adv-x="536" 
d="M193 67v267l-189 266q-6 9 -9.5 20.5t-3.5 23.5q0 30 20 51.5t51 21.5q20 0 36 -8t26 -22l144 -208l144 209q10 13 26.5 21t35.5 8q32 0 52 -21.5t20 -51.5q0 -12 -3.5 -23.5t-10.5 -21.5l-189 -265v-267q0 -29 -17.5 -51t-57.5 -22t-57.5 22t-17.5 50v1z" />
    <glyph glyph-name="Z" unicode="Z" horiz-adv-x="593" 
d="M209 132h290q32 -1 52 -18t20 -49q0 -28 -22.5 -46.5t-49.5 -18.5h-393q-40 0 -62 20t-22 51q0 15 5 30t15 28l322 451h-263q-30 -1 -50 15.5t-20 47.5q0 29 21 48.5t49 19.5l366 1q41 -1 61.5 -22t22.5 -46v-2.5v-2.5q0 -4 -0.5 -9t-1.5 -9q-2 -13 -7.5 -25t-12.5 -21
l-320 -443v0z" />
    <glyph glyph-name="bracketleft" unicode="[" horiz-adv-x="278" 
d="M44 -82v734q0 32 20 51.5t53 19.5l100 1q22 -1 37.5 -14t15.5 -44t-15.5 -44t-37.5 -13l-47 1v-650h47q22 0 37.5 -13t15.5 -44t-15.5 -44t-37.5 -13h-100q-33 0 -53 19.5t-20 52.5v0z" />
    <glyph glyph-name="backslash" unicode="\" horiz-adv-x="407" 
d="M123 687l267 -616q5 -11 7 -19t2 -10q0 -23 -17.5 -38.5t-42.5 -15.5q-24 0 -36 10t-19 26l-268 617q-4 10 -6 17.5t-2 9.5q0 23 17 39t42 16q24 0 36.5 -10t19.5 -27v1z" />
    <glyph glyph-name="bracketright" unicode="]" horiz-adv-x="278" 
d="M234 652v-734q0 -33 -20 -52.5t-53 -19.5h-100q-22 0 -37.5 13t-15.5 44t15.5 44t37.5 13h47v650h-47q-22 -1 -37.5 12t-15.5 44t15.5 44t37.5 13l100 1q33 -1 53 -20.5t20 -52.5v1z" />
    <glyph glyph-name="asciicircum" unicode="^" horiz-adv-x="600" 
d="M300 568l-125 -231q-9 -14 -21 -18.5t-30 -4.5q-21 0 -36 10t-15 30q0 9 3.5 19t9.5 21l161 294q7 13 19 20t25 8q2 1 4.5 1h4.5h4.5t4.5 -1q13 -1 25 -8t19 -21l161 -292q6 -12 9.5 -22t3.5 -19q0 -20 -15 -30t-36 -10q-18 0 -30 4.5t-21 17.5l-125 232v0z" />
    <glyph glyph-name="underscore" unicode="_" horiz-adv-x="500" 
d="M500 -125h-500q-11 0 -19.5 6.5t-8.5 18.5t8.5 18.5t19.5 6.5h500q12 0 20.5 -6.5t8.5 -18.5t-8.5 -18.5t-20.5 -6.5v0z" />
    <glyph glyph-name="grave" unicode="`" horiz-adv-x="222" 
d="M80 763l118 -48l8 -4q11 -7 18.5 -16t8.5 -19q1 -2 1 -3.5v-2.5v-4v-4q-3 -24 -17.5 -44.5t-35.5 -20.5h-9.5t-5.5 1q-3 1 -8 3t-17 6l-112 45q-21 7 -30.5 21.5t-9.5 36.5q0 4 0.5 8t1.5 8q5 17 19 31.5t32 14.5q8 0 17.5 -2.5t20.5 -7.5v1z" />
    <glyph glyph-name="a" unicode="a" horiz-adv-x="574" 
d="M533 444v-356v-16t-1 -17q-3 -23 -16.5 -42t-51.5 -19q-31 0 -46 16t-23 44q-28 -33 -62 -49.5t-75 -16.5q-101 0 -169.5 77.5t-68.5 198.5q0 119 69.5 199t168.5 80q40 0 76.5 -16t60.5 -50q3 26 23 43t46 17q38 0 51.5 -19.5t16.5 -42.5q1 -9 1 -17v-15v1zM164 265
v-9.5t1 -9.5q4 -47 31.5 -87t81.5 -40q52 0 79 40t31 87q1 5 1 9.5v8.5q0 5 -0.5 10.5t-0.5 11.5q-5 47 -32 86t-78 39q-53 0 -80.5 -39t-32.5 -86q0 -6 -0.5 -11.5t-0.5 -10.5v1z" />
    <glyph glyph-name="b" unicode="b" horiz-adv-x="574" 
d="M41 74v616q0 35 20.5 57t51.5 22q32 0 52 -22t20 -58v-195q29 24 64.5 36.5t72.5 12.5q112 0 170 -84.5t62 -186.5v-6.5v-7.5q0 -102 -64 -186t-173 -84q-7 0 -14.5 0.5t-14.5 1.5q-31 6 -59 21t-44 42q-7 -28 -24.5 -43.5t-47.5 -15.5q-31 0 -51.5 21.5t-20.5 57.5v1z
M185 270q0 -7 0.5 -13t0.5 -12q5 -47 32 -86.5t80 -39.5q49 0 76.5 37.5t33.5 82.5q1 6 1.5 12.5t0.5 12.5t-0.5 12.5t-1.5 12.5q-6 46 -33.5 84t-76.5 38q-56 0 -83.5 -42.5t-29.5 -93.5v-3.5v-2.5v1z" />
    <glyph glyph-name="c" unicode="c" horiz-adv-x="463" 
d="M454 453q0 -5 -0.5 -9.5t-1.5 -9.5q-5 -19 -18.5 -35t-34.5 -16q-6 0 -12 1t-12 3q-7 2 -14.5 4.5t-14.5 5.5q-14 5 -29 9.5t-32 4.5q-61 0 -91 -45.5t-30 -101.5v-4v-4q3 -52 34 -94.5t87 -42.5q9 0 19 2t20 6q6 1 11 3t11 4q15 6 27.5 10.5t18.5 4.5q26 0 44 -18.5
t18 -44.5q0 -35 -31 -56t-68 -31q-22 -6 -42.5 -8.5t-34.5 -2.5q-116 0 -187 82t-71 194q0 110 72 194.5t186 84.5q15 0 34 -2t39 -7q39 -8 71 -27.5t32 -54.5v1z" />
    <glyph glyph-name="d" unicode="d" horiz-adv-x="574" 
d="M533 690v-616q0 -37 -20 -58.5t-52 -21.5q-30 0 -47.5 15.5t-24.5 43.5q-16 -27 -44 -42t-59 -21q-7 -1 -14.5 -1.5t-14.5 -0.5q-109 0 -173 84t-64 186v7.5v6.5q4 102 62 186.5t170 84.5q38 0 73.5 -12.5t63.5 -37.5v197q0 35 20.5 57t51.5 22q32 0 52 -22t20 -58v1z
M389 270v1.5v3.5q-2 51 -29.5 93.5t-83.5 42.5q-49 0 -76.5 -38t-33.5 -84q-1 -6 -1.5 -12.5t-0.5 -12.5t0.5 -12.5t1.5 -12.5q6 -45 33.5 -82.5t76.5 -37.5q53 0 80 39.5t32 86.5q0 6 0.5 12t0.5 12v1z" />
    <glyph glyph-name="e" unicode="e" horiz-adv-x="537" 
d="M464 218h-307q8 -54 47 -79.5t89 -25.5q28 0 51.5 9t43.5 20t37 20t31 9q23 0 41 -19.5t18 -42.5q0 -40 -59 -74t-130 -44q-12 -1 -23.5 -2t-22.5 -1q-121 0 -195.5 78.5t-74.5 197.5q0 110 72 194.5t186 84.5q101 0 168.5 -66.5t85.5 -146.5q2 -12 3.5 -24.5t1.5 -24.5
q0 -32 -15 -48t-48 -16v1zM154 314h229q-6 46 -35.5 77.5t-79.5 31.5q-48 0 -78.5 -32t-35.5 -78v1z" />
    <glyph glyph-name="f" unicode="f" horiz-adv-x="296" 
d="M74 74v332h-32q-29 -1 -45.5 16t-16.5 46q0 27 17.5 45t44.5 18l32 1v74q0 79 42.5 121t108.5 42q38 0 69 -13.5t31 -51.5q0 -31 -14.5 -46t-44.5 -15q-18 0 -33 -6.5t-15 -46.5v-58h45q32 -1 52.5 -15t20.5 -49q0 -34 -20.5 -48.5t-52.5 -14.5l-45 1v-332
q0 -37 -20 -58.5t-52 -21.5q-31 0 -51.5 21.5t-20.5 57.5v1z" />
    <glyph glyph-name="g" unicode="g" horiz-adv-x="574" 
d="M533 458v-416q0 -130 -77 -195t-200 -65q-17 0 -45 3.5t-58 11.5q-47 12 -85.5 34.5t-38.5 58.5q0 4 1 8.5t2 8.5q6 16 20 29.5t30 16.5h2.5h2.5q17 0 35.5 -7t40.5 -16q22 -8 47.5 -15t56.5 -7q53 0 87.5 29.5t34.5 83.5v35h-2q-22 -34 -58.5 -51t-86.5 -17
q-113 0 -167.5 84t-54.5 191q0 109 64 194.5t173 85.5q7 0 14.5 -0.5t14.5 -1.5q31 -6 59 -21.5t44 -42.5q7 29 24.5 44.5t47.5 15.5q32 0 52 -22t20 -58v1zM389 262q0 5 -0.5 11t-0.5 12q-5 47 -32 86.5t-80 39.5q-49 0 -76.5 -37.5t-33.5 -82.5q-1 -6 -1.5 -12.5
t-0.5 -12.5q0 -58 28 -102.5t84 -44.5t83.5 42.5t29.5 93.5v3.5v2.5v1z" />
    <glyph glyph-name="h" unicode="h" horiz-adv-x="556" 
d="M41 74v616q0 35 20.5 57t51.5 22q32 0 52 -22t20 -58v-195h2q16 19 39.5 30t49.5 15q11 2 21.5 3t20.5 1q85 0 141 -51t56 -143v-275q0 -37 -20 -58.5t-52 -21.5q-31 0 -51.5 21.5t-20.5 57.5v252q0 49 -27.5 73.5t-66.5 24.5q-44 0 -68 -28.5t-24 -70.5v-250
q0 -37 -20 -58.5t-52 -21.5q-31 0 -51.5 21.5t-20.5 57.5v1z" />
    <glyph glyph-name="i" unicode="i" horiz-adv-x="222" 
d="M39 74v384q0 35 20.5 57t51.5 22q32 0 52 -22t20 -58v-383q0 -37 -20 -58.5t-52 -21.5q-31 0 -51.5 21.5t-20.5 57.5v1zM111 754q32 -1 56.5 -24.5t24.5 -55.5q0 -34 -23.5 -58.5t-57.5 -24.5q-32 0 -56.5 25t-24.5 58q0 31 24.5 55t56.5 24v1z" />
    <glyph glyph-name="j" unicode="j" horiz-adv-x="222" 
d="M39 -138v596q0 35 20.5 57t51.5 22q32 0 52 -22t20 -58v-595q0 -36 -20 -58t-52 -22q-31 0 -51.5 22t-20.5 58v0zM111 754q32 -1 56.5 -24.5t24.5 -55.5q0 -34 -23.5 -58.5t-57.5 -24.5q-32 0 -56.5 25t-24.5 58q0 31 24.5 55t56.5 24v1z" />
    <glyph glyph-name="k" unicode="k" horiz-adv-x="500" 
d="M41 74v616q0 35 20.5 57t51.5 22q32 0 52 -22t20 -58v-335l158 153q17 16 34 23t31 7q26 0 43 -19.5t18 -42.5v-1.5v-1.5q0 -10 -2.5 -19.5t-8.5 -18.5q-4 -5 -8 -9.5t-9 -9.5l-128 -113l169 -198q7 -8 10.5 -16.5t5.5 -16.5q1 -4 1.5 -8t0.5 -8q0 -28 -19.5 -47.5
t-48.5 -19.5q-13 0 -24.5 5t-22.5 14q-5 5 -10.5 11t-11.5 13l-176 218h-2v-175q0 -37 -20 -58.5t-52 -21.5q-31 0 -51.5 21.5t-20.5 57.5v1z" />
    <glyph glyph-name="l" unicode="l" horiz-adv-x="222" 
d="M39 74v616q0 35 20.5 57t51.5 22q32 0 52 -22t20 -58v-615q0 -37 -20 -58.5t-52 -21.5q-31 0 -51.5 21.5t-20.5 57.5v1z" />
    <glyph glyph-name="m" unicode="m" horiz-adv-x="852" 
d="M41 74v384q0 35 20.5 57t51.5 22q28 0 45 -14t21 -40q26 29 60 44.5t74 15.5q45 0 83 -18.5t66 -54.5q19 21 43 37t49 25q16 5 31 8t29 3q88 0 142.5 -49.5t54.5 -144.5v-275q0 -37 -20 -58.5t-52 -21.5q-31 0 -51.5 21.5t-20.5 57.5v252q0 43 -22.5 70.5t-61.5 27.5
q-40 0 -62.5 -27.5t-22.5 -71.5v-250q0 -37 -20 -58.5t-52 -21.5q-31 0 -51.5 21.5t-20.5 57.5v252q0 43 -22.5 70.5t-61.5 27.5q-44 0 -64.5 -27.5t-20.5 -71.5v-250q0 -37 -20 -58.5t-52 -21.5q-31 0 -51.5 21.5t-20.5 57.5v1z" />
    <glyph glyph-name="n" unicode="n" horiz-adv-x="556" 
d="M41 74v384q0 35 20.5 57t51.5 22q28 0 45 -14t21 -39q21 29 54.5 44t84.5 15q85 0 141 -51t56 -143v-275q0 -37 -20 -58.5t-52 -21.5q-31 0 -51.5 21.5t-20.5 57.5v252q0 49 -27.5 73.5t-66.5 24.5q-44 0 -68 -28.5t-24 -70.5v-250q0 -37 -20 -58.5t-52 -21.5
q-31 0 -51.5 21.5t-20.5 57.5v1z" />
    <glyph glyph-name="o" unicode="o" horiz-adv-x="556" 
d="M278 544q114 -1 186 -85.5t72 -194.5q0 -112 -71 -194t-187 -82t-187 82t-71 194q0 110 72 194.5t186 84.5v1zM278 412q-53 -1 -80.5 -40t-32.5 -86q0 -6 -0.5 -11.5t-0.5 -10.5v-8.5t1 -9.5q4 -47 31.5 -87t81.5 -40t81.5 40t31.5 87q1 5 1 9.5v8.5q0 5 -0.5 10.5
t-0.5 11.5q-5 47 -32.5 86t-80.5 39v1z" />
    <glyph glyph-name="p" unicode="p" horiz-adv-x="574" 
d="M41 -138v596q0 35 20.5 57t51.5 22q30 0 47.5 -15.5t24.5 -44.5q19 31 54 47.5t73 18.5h4.5h5.5q112 0 170 -84.5t62 -186.5v-6.5v-7.5q0 -102 -64 -186t-173 -84q-9 0 -18 1t-19 3q-25 5 -49.5 16t-45.5 29v-175q0 -36 -20 -58t-52 -22q-31 0 -51.5 22t-20.5 58v0z
M185 270q0 -7 0.5 -13t0.5 -12q5 -47 32 -86.5t80 -39.5q49 0 76.5 37.5t33.5 82.5q1 6 1.5 12.5t0.5 12.5t-0.5 12.5t-1.5 12.5q-6 46 -33.5 84t-76.5 38q-56 0 -83.5 -42.5t-29.5 -93.5v-3.5v-2.5v1z" />
    <glyph glyph-name="q" unicode="q" horiz-adv-x="574" 
d="M533 458v-596q0 -36 -20 -58t-52 -22q-31 0 -51.5 22t-20.5 58v176q-21 -19 -45.5 -30t-49.5 -16q-10 -2 -19 -3t-18 -1q-109 0 -173 84t-64 186v7.5v6.5q4 102 62 186.5t170 84.5h5.5h4.5q38 -2 73 -18.5t54 -47.5q7 29 24.5 44.5t47.5 15.5q32 0 52 -22t20 -58v1z
M389 270v1.5v3.5q-2 51 -29.5 93.5t-83.5 42.5q-49 0 -76.5 -38t-33.5 -84q-1 -6 -1.5 -12.5t-0.5 -12.5t0.5 -12.5t1.5 -12.5q6 -45 33.5 -82.5t76.5 -37.5q53 0 80 39.5t32 86.5q0 6 0.5 12t0.5 12v1z" />
    <glyph glyph-name="r" unicode="r" horiz-adv-x="333" 
d="M39 74v392q0 33 21.5 51t47.5 20h2.5h2.5q29 0 49.5 -12.5t20.5 -47.5l2 1q20 29 43.5 44t57.5 15q26 0 48 -19t22 -58q0 -25 -15 -36.5t-36 -19.5q-8 -3 -17 -6.5t-18 -7.5q-1 0 -1.5 -0.5t-1.5 -0.5q-31 -15 -57.5 -34t-26.5 -61v-220q0 -37 -20 -58.5t-52 -21.5
q-31 0 -51.5 21.5t-20.5 57.5v1z" />
    <glyph glyph-name="s" unicode="s" horiz-adv-x="426" 
d="M403 440q0 -26 -16.5 -45.5t-42.5 -19.5q-10 0 -25 6.5t-32 14.5q-10 4 -20 8.5t-20 7.5q-8 2 -16 3.5t-16 1.5q-19 0 -34 -9.5t-15 -30.5q0 -15 16 -26t40 -21q16 -6 33.5 -12.5t35.5 -14.5q47 -20 86 -52.5t39 -94.5q0 -72 -56 -120t-149 -48q-15 0 -31.5 2t-32.5 6
q-52 11 -94.5 38t-42.5 64q0 5 1.5 12t5.5 13q7 15 21 27t34 12q18 0 32 -5.5t27 -13.5q3 -1 5.5 -2.5t5.5 -2.5q16 -10 35 -17.5t44 -7.5q33 0 45 10.5t12 30.5q0 15 -15.5 25.5t-39.5 20.5q-15 6 -33.5 13t-36.5 14q-47 20 -86 53t-39 95q0 75 55 121.5t140 46.5
q14 0 29 -1.5t31 -5.5q45 -9 82.5 -33.5t37.5 -63.5v1z" />
    <glyph glyph-name="t" unicode="t" horiz-adv-x="296" 
d="M76 74v332h-32q-29 -1 -45.5 16t-16.5 46q0 27 17.5 45t44.5 18l32 1v86q0 35 20.5 57t51.5 22q32 0 52 -22t20 -58v-85h41q28 -1 48.5 -15t20.5 -49q0 -34 -20.5 -48.5t-48.5 -14.5l-41 1v-332q0 -37 -20 -58.5t-52 -21.5q-31 0 -51.5 21.5t-20.5 57.5v1z" />
    <glyph glyph-name="u" unicode="u" horiz-adv-x="556" 
d="M41 198v260q0 35 20.5 57t51.5 22q32 0 52 -22t20 -58v-256q0 -46 28.5 -70t64.5 -24t64.5 24t28.5 69v258q0 35 20.5 57t51.5 22q32 0 52 -22t20 -58v-259q0 -97 -61.5 -153.5t-175.5 -56.5t-175.5 56.5t-61.5 152.5v1z" />
    <glyph glyph-name="v" unicode="v" horiz-adv-x="462" 
d="M153 54l-145 372q-4 10 -6 17.5t-2 15.5v4v4q0 35 22.5 52.5t51.5 17.5q24 0 38 -12t21 -26q1 -3 2.5 -6.5t2.5 -6.5l92 -283h2l92 284q1 2 2.5 5.5t2.5 6.5q7 14 21 26t38 12q29 0 52 -17.5t23 -52.5v-4v-4q-1 -8 -3 -15.5t-6 -18.5l-145 -371q-10 -29 -25.5 -44.5
t-52.5 -15.5t-52 15.5t-26 43.5v1z" />
    <glyph glyph-name="w" unicode="w" horiz-adv-x="778" 
d="M144 67l-122 345q-6 16 -9.5 29t-4.5 25q-1 3 -1 6.5v6.5q0 24 20.5 41t51.5 17q26 0 44 -15.5t24 -41.5l83 -274h2l84 269q8 28 25 45t48 17q32 0 48.5 -17t24.5 -46l84 -268h2l83 275q6 25 24 40.5t44 15.5q32 0 52 -18.5t20 -51.5q0 -12 -4.5 -24.5t-9.5 -29.5
l-123 -346q-11 -32 -31.5 -52.5t-55.5 -20.5q-33 0 -53 17.5t-30 48.5l-74 233h-2l-74 -232q-10 -32 -30 -49.5t-53 -17.5q-35 0 -55.5 20.5t-31.5 51.5v1z" />
    <glyph glyph-name="x" unicode="x" horiz-adv-x="500" 
d="M20 113l146 166l-122 137q-7 7 -12.5 17t-7.5 20q-1 4 -1.5 7.5t-0.5 6.5q0 29 23 49.5t51 20.5q17 0 29.5 -7t23.5 -21l101 -125l101 126q11 13 23.5 20t29.5 7q28 0 51 -20.5t23 -49.5q0 -3 -0.5 -6.5t-1.5 -7.5q-2 -10 -7.5 -20t-12.5 -18l-122 -136l146 -166
q5 -7 9.5 -15t7.5 -17q1 -4 2 -9t1 -9q0 -31 -19.5 -50t-51.5 -19q-22 0 -34 7t-22 19q-1 1 -2 2.5t-2 2.5l-119 147l-119 -146q-1 -2 -2 -3.5t-2 -2.5q-10 -12 -22 -19t-34 -7q-31 0 -51 19t-20 50q0 4 1 9t2 9q3 9 7.5 17t9.5 14v1z" />
    <glyph glyph-name="y" unicode="y" horiz-adv-x="481" 
d="M164 42l-159 397q-3 7 -4.5 16t-1.5 20q0 22 15.5 38t35.5 22q4 1 8 1.5t8 0.5q26 0 44.5 -13.5t27.5 -37.5l99 -270l106 271q9 23 27.5 36.5t44.5 13.5q4 0 8 -0.5t8 -1.5q20 -6 36 -22t16 -38q0 -11 -1.5 -20t-5.5 -17l-241 -599q-9 -23 -25.5 -40t-42.5 -17
q-37 0 -56 19.5t-19 42.5q0 3 0.5 7t0.5 7q1 7 3.5 14t4.5 14l63 156v0z" />
    <glyph glyph-name="z" unicode="z" horiz-adv-x="481" 
d="M24 88l226 318h-167q-27 -1 -46 15.5t-19 46.5t19 46.5t46 16.5l327 1q4 -1 9.5 -2t11.5 -3q10 -4 18 -13.5t8 -27.5q0 -9 -1.5 -15.5t-3.5 -12.5q-2 -3 -4.5 -7t-5.5 -8l-227 -317h190q27 -1 46 -17.5t19 -46.5t-19 -46t-46 -16h-335q-24 0 -41.5 11.5t-17.5 36.5
q0 9 2.5 17t5.5 14q2 2 3 4l2 4v1z" />
    <glyph glyph-name="braceleft" unicode="{" horiz-adv-x="333" 
d="M86 -23v194q0 44 -14.5 54.5t-33.5 10.5q-25 0 -36 15t-11 33t11 33t36 15q19 0 33.5 10.5t14.5 55.5v195q0 67 34 98.5t99 31.5l62 1q20 -1 32.5 -12t12.5 -34q0 -22 -12.5 -33.5t-32.5 -11.5l-25 1q-21 -1 -32.5 -14.5t-11.5 -44.5v-188q0 -46 -19.5 -66.5t-43.5 -27.5
q-12 -4 -24 -5.5t-21 -2.5v-1q9 -2 21 -3.5t24 -5.5q24 -7 43.5 -27.5t19.5 -65.5v-188q0 -31 11.5 -44.5t32.5 -13.5h25q20 0 32.5 -11.5t12.5 -33.5q0 -23 -12.5 -34t-32.5 -11h-62q-65 0 -99 31.5t-34 99.5v0z" />
    <glyph glyph-name="bar" unicode="|" horiz-adv-x="222" 
d="M171 710v-662q0 -28 -16 -44t-44 -16t-44 16t-16 43v663q0 26 16 42.5t44 16.5t44 -16.5t16 -43.5v1z" />
    <glyph glyph-name="braceright" unicode="}" horiz-adv-x="333" 
d="M247 593v-194q0 -46 14.5 -56.5t33.5 -10.5q25 0 36.5 -15t11.5 -33t-11.5 -33t-36.5 -15q-19 0 -33.5 -10.5t-14.5 -55.5v-193q0 -68 -34 -99.5t-99 -31.5h-62q-19 0 -32 11t-13 34q0 22 13 33.5t32 11.5h25q21 0 32.5 13.5t11.5 44.5v189q0 44 19.5 64.5t43.5 27.5
q12 4 24 5.5t21 2.5v3q-9 0 -21 1.5t-24 5.5q-24 7 -43.5 27.5t-19.5 65.5v190q0 30 -11.5 43.5t-32.5 13.5l-25 1q-19 -1 -32 10.5t-13 33.5q0 23 13 34t32 11l62 1q65 -1 99 -32.5t34 -99.5v1z" />
    <glyph glyph-name="asciitilde" unicode="~" horiz-adv-x="600" 
d="M405 279q21 -1 35 8.5t25 21.5q3 2 5 4l4 4q9 9 19 15.5t23 6.5q23 0 32.5 -14.5t10.5 -31.5v-1.5v-1.5q0 -6 -0.5 -11.5t-1.5 -11.5q-9 -41 -47.5 -75t-102.5 -34q-15 0 -30 3.5t-31 8.5q-13 4 -26.5 10t-27.5 12q-28 13 -53 23.5t-44 10.5q-21 0 -35 -9.5t-25 -20.5
l-5 -5l-4 -4q-9 -9 -19 -15.5t-23 -6.5q-23 0 -32.5 14.5t-10.5 31.5v1.5v1.5q0 6 0.5 11.5t1.5 11.5q9 41 47.5 75t102.5 34q15 0 30 -3.5t31 -8.5q13 -4 26.5 -10t27.5 -12q28 -13 53 -23.5t44 -10.5v1z" />
    <glyph glyph-name="glyph98" unicode="&#xa1;" horiz-adv-x="334" 
d="M95 -124v385q0 31 20.5 49t51.5 18q30 0 51 -18.5t21 -49.5v-384q0 -31 -21 -49.5t-51 -18.5q-31 0 -51.5 18t-20.5 50v0zM167 544q32 -1 55 -24t23 -55t-23 -55t-55 -23t-55 23t-23 55t23 55t55 23v1z" />
    <glyph glyph-name="cent" unicode="&#xa2;" horiz-adv-x="463" 
d="M292 411v-291q7 0 15 1.5t16 4.5l12 4t11 4q15 6 27.5 10.5t18.5 4.5q26 0 44 -18.5t18 -44.5q0 -37 -31.5 -58.5t-69.5 -30.5q-16 -4 -32 -6.5t-29 -2.5v-23v-1.5v-1.5q0 -16 -4 -30t-23 -14t-23 14t-4 30v1.5v1.5v27q-103 13 -160.5 91t-57.5 185q0 103 59.5 179.5
t158.5 91.5v29q0 19 3.5 32.5t23.5 13.5t23.5 -13.5t3.5 -33.5v-23q13 -1 30 -3.5t35 -6.5q36 -9 66.5 -29t30.5 -53q0 -4 -0.5 -7.5t-0.5 -7.5q-4 -21 -18 -38.5t-36 -17.5q-6 0 -12 1t-12 3q-7 2 -14.5 5t-14.5 6l-25.5 8.5t-28.5 5.5v1zM238 132v269q-37 -17 -55.5 -55
t-18.5 -82v-4.5v-4.5q2 -39 21 -74t53 -50v1z" />
    <glyph glyph-name="sterling" unicode="&#xa3;" horiz-adv-x="611" 
d="M273 424h152q32 -1 52 -19.5t20 -50.5t-20 -50.5t-52 -18.5l-129 1q0 -41 -13.5 -78.5t-37.5 -70.5l278 1q32 -1 52 -19.5t20 -50.5t-20 -50t-52 -18h-392q-37 0 -57.5 20.5t-20.5 56.5q0 15 13.5 32t30.5 41q16 23 29.5 56t13.5 79l-52 1q-31 -1 -51.5 17.5t-20.5 50.5
t20.5 50.5t51.5 18.5l21 1q-5 9 -10 23.5t-9 30.5q-3 14 -5 27.5t-2 23.5q0 89 75 141.5t177 52.5q105 0 179 -49.5t74 -123.5q0 -34 -22 -55t-56 -21q-20 0 -33.5 11t-25.5 26l-6 8l-6 8q-16 19 -37.5 35.5t-60.5 16.5q-37 0 -66.5 -19.5t-29.5 -57.5q0 -14 3 -28t10 -25
l15 -25v0z" />
    <glyph glyph-name="Idieresis" unicode="&#xa4;" horiz-adv-x="600" 
d="M300 109q-42 -1 -80 11t-62 34l-57 -58q-5 -7 -13 -10t-16 -3q-3 0 -6.5 0.5t-6.5 1.5q-6 2 -11.5 5t-9.5 9q-7 11 -9.5 20t-2.5 16q0 5 2.5 9.5t5.5 7.5l3.5 3.5l2.5 2.5l58 59q-22 24 -34 60.5t-12 77.5v3.5v2.5q1 40 12.5 76.5t33.5 58.5l-58 59q-1 0 -2.5 2t-3.5 4
q-3 3 -5 7t-3 9q0 8 1.5 17t10.5 19q4 6 9.5 9t11.5 5q3 1 6.5 1.5t6.5 0.5q8 0 16 -3t13 -9l57 -56q21 16 53 27.5t67 14.5q5 0 11 0.5t11 0.5t11 -0.5t11 -0.5q35 -3 67 -14.5t53 -28.5l57 58q5 5 13 8t16 3q3 0 6.5 -0.5t6.5 -1.5q6 -2 11.5 -5t9.5 -9q8 -10 10 -19
t2 -17q0 -5 -2.5 -9.5t-5.5 -7.5l-3.5 -3.5l-2.5 -2.5l-58 -57q22 -23 33.5 -59.5t12.5 -76.5v-2.5v-3.5q0 -41 -12 -77.5t-34 -61.5l58 -57q1 -2 2.5 -3.5l3.5 -3.5q3 -3 5.5 -7.5t2.5 -9.5q0 -7 -2 -16t-10 -20q-4 -6 -9.5 -9t-11.5 -5q-3 -1 -6.5 -1.5t-6.5 -0.5
q-8 0 -16 3t-13 9l-57 60q-24 -23 -62 -35t-80 -12v1zM300 491q-55 -1 -91.5 -39.5t-36.5 -96.5q0 -57 36.5 -95t91.5 -38t91.5 38t36.5 95q0 58 -36 96.5t-92 38.5v1z" />
    <glyph glyph-name="ae" unicode="&#xa5;" horiz-adv-x="574" 
d="M212 67v121h-142q-19 -1 -33.5 10.5t-14.5 30.5t14.5 30.5t33.5 11.5l142 1v68h-142q-19 -1 -33.5 10.5t-14.5 30.5t14.5 30.5t33.5 11.5l81 1l-127 176q-7 9 -10.5 20.5t-3.5 23.5q0 30 20.5 51.5t51.5 21.5q4 0 8.5 -0.5t9.5 -1.5q13 -3 25 -10t19 -18l143 -208
l143 209q7 10 19 17t25 10q5 1 9.5 1.5t8.5 0.5q32 0 52 -21.5t20 -51.5q0 -12 -3.5 -23.5t-10.5 -21.5l-127 -175h81q19 -1 33.5 -12.5t14.5 -30.5t-14.5 -30.5t-33.5 -11.5l-142 1v-68h142q19 -1 33.5 -12.5t14.5 -30.5t-14.5 -30.5t-33.5 -11.5l-142 1v-121
q0 -29 -17 -51t-58 -22q-40 0 -57.5 22t-17.5 50v1z" />
    <glyph glyph-name="brokenbar" unicode="&#xa6;" 
 />
    <glyph glyph-name="section" unicode="&#xa7;" horiz-adv-x="574" 
d="M280 724q20 -1 45.5 -4t51.5 -9q56 -14 103 -46.5t47 -89.5q0 -27 -19.5 -49t-47.5 -22q-18 0 -32.5 9t-28.5 22q-3 3 -6.5 6t-7.5 7q-17 16 -37.5 29.5t-49.5 13.5q-28 0 -51 -19t-23 -50q0 -24 19 -38t49 -26q21 -8 46.5 -17.5t51.5 -22.5q62 -25 113 -62.5t51 -107.5
q0 -61 -25 -99.5t-72 -71.5q-2 -2 -4.5 -3.5t-4.5 -3.5q6 -7 11 -14t9 -14q11 -17 17 -35t6 -41q0 -88 -64 -136t-147 -48q-7 0 -15 0.5t-15 1.5q-82 8 -150 51.5t-68 97.5q0 33 24 53.5t56 20.5q15 0 26.5 -8t22.5 -20q4 -5 8 -9t8 -9q15 -18 35 -32.5t50 -14.5
q4 0 8.5 0.5t9.5 1.5q21 4 38 18t17 37q0 31 -30 50t-72 35q-12 5 -25.5 10t-26.5 10q-1 0 -1.5 0.5t-1.5 0.5q-59 23 -108.5 62.5t-49.5 118.5q0 56 21 94.5t62 72.5q2 2 3.5 3t2.5 2q-6 6 -11 12.5t-10 12.5q-12 17 -19 35.5t-7 44.5q0 90 65 139t153 49v1zM221 209
l126 -53q22 12 36.5 28.5t14.5 43.5t-22 45.5t-52 29.5l-110 44q-18 -14 -31 -31.5t-13 -40.5q0 -25 13.5 -40.5t37.5 -26.5v1z" />
    <glyph glyph-name="dieresis" unicode="&#xa8;" horiz-adv-x="222" 
d="M-71 675q1 29 22 50t50 21q30 0 51 -21t21 -51t-21 -51t-51 -21q-29 0 -50 21t-21 51zM149 675q0 29 21 50t51 21t51 -21t21 -51t-21 -51t-51 -21t-51 21t-21 51v1z" />
    <glyph glyph-name="copyright" unicode="&#xa9;" horiz-adv-x="800" 
d="M32 356q0 151 108 259t260 108t260 -108t108 -260t-108 -259.5t-260 -107.5t-260 107.5t-108 259.5v1zM122 356q0 -116 81.5 -197.5t196.5 -81.5q116 0 197 81.5t81 196.5q0 116 -81 197t-197 81q-115 0 -196.5 -81t-81.5 -197v1zM536 389q-24 -1 -33.5 9.5t-16.5 25.5
q-1 2 -2 4.5t-2 4.5q-2 3 -3.5 5.5t-3.5 5.5q-9 10 -24.5 18.5t-47.5 8.5q-45 0 -68 -31.5t-23 -84.5t23 -84.5t68 -31.5q32 0 47.5 8.5t24.5 18.5q2 3 3.5 5.5t3.5 5.5q1 2 2 4.5t2 4.5q7 15 16.5 25.5t33.5 10.5q25 -4 32.5 -15.5t7.5 -38.5q0 -10 -4.5 -21t-12.5 -23
q-19 -28 -59.5 -51.5t-96.5 -23.5q-92 0 -145.5 59t-53.5 147t53.5 147t145.5 59q56 0 96.5 -23.5t59.5 -51.5q8 -12 12.5 -23t4.5 -21q0 -27 -7.5 -38t-32.5 -16v1z" />
    <glyph glyph-name="ellipsis" unicode="&#xaa;" horiz-adv-x="373" 
d="M346 670v-235v-5.5v-4.5q-2 -13 -11 -24t-33 -11q-25 0 -34 11.5t-11 27.5l-1.5 -1.5l-1.5 -1.5q-13 -13 -34 -24.5t-45 -11.5q-71 0 -116.5 46.5t-45.5 119.5q0 71 45.5 119t109.5 48q26 0 49.5 -9.5t39.5 -29.5q2 16 11 27.5t34 11.5q29 0 36.5 -17t7.5 -37v1zM181 469
q34 -1 50 23.5t19 53.5v4.5v5.5v6t-1 6q-2 29 -18.5 53t-49.5 24q-34 0 -51 -24t-20 -53q-1 -3 -1 -6v-6v-5.5v-4.5q3 -29 20.5 -53.5t51.5 -24.5v1z" />
    <glyph glyph-name="ydieresis" unicode="&#xab;" horiz-adv-x="500" 
d="M61 341l97 137q8 7 18 11.5t25 4.5q27 0 42.5 -16.5t15.5 -38.5q0 -10 -2 -19.5t-9 -18.5l-79 -120l79 -119q7 -11 9 -19.5t2 -15.5q0 -26 -16.5 -44.5t-43.5 -18.5q-15 0 -28.5 6.5t-21.5 18.5l-103 160q-3 4 -5 10t-3 13q-1 3 -1 6v6q0 4 1 9t2 9q3 7 6.5 14t7.5 13
q2 3 3.5 6t3.5 5v1zM265 341l97 137q8 7 18 11.5t25 4.5q27 0 42.5 -16.5t15.5 -38.5q0 -10 -2 -19.5t-9 -18.5l-79 -120l79 -119q7 -11 9 -19.5t2 -15.5q0 -26 -16.5 -44.5t-43.5 -18.5q-15 0 -28.5 6.5t-21.5 18.5l-103 160q-3 4 -5 10t-3 13q-1 3 -1 6v6q0 4 1 9t2 9
q3 7 6.5 14t7.5 13q2 3 3.5 6t3.5 5v1z" />
    <glyph glyph-name="emdash" unicode="&#xac;" 
 />
    <glyph glyph-name="uni00AD" unicode="&#xad;" horiz-adv-x="500" 
 />
    <glyph glyph-name="registered" unicode="&#xae;" horiz-adv-x="800" 
d="M32 356q0 151 108 259t260 108t260 -108t108 -260t-108 -259.5t-260 -107.5t-260 107.5t-108 259.5v1zM122 356q0 -116 81.5 -197.5t196.5 -81.5q116 0 197 81.5t81 196.5q0 116 -81 197t-197 81q-115 0 -196.5 -81t-81.5 -197v1zM342 316v-118q0 -22 -9.5 -35.5
t-35.5 -13.5t-35.5 12t-9.5 36v310q0 16 9 28.5t37 12.5l113 1q61 -1 105 -24.5t44 -93.5q0 -53 -26 -80.5t-74 -29.5l71 -115q3 -7 4.5 -12t1.5 -10q0 -16 -11 -25.5t-36 -9.5q-21 0 -31.5 12t-18.5 27q-2 3 -3 5l-2 4l-63 119h-30v0zM342 388h75q25 -1 39 7.5t14 35.5
t-14 36t-39 9l-75 1v-89v0z" />
    <glyph glyph-name="glyph263" unicode="&#xaf;" 
 />
    <glyph glyph-name="glyph264" unicode="&#xb0;" 
 />
    <glyph glyph-name="mu" unicode="&#xb1;" horiz-adv-x="600" 
d="M95 120h410q28 -1 44 -17.5t16 -43.5t-16 -43t-44 -16h-410q-28 0 -44 16t-16 43t16 43.5t44 16.5v1zM240 394v64q0 26 16 42.5t44 16.5t44 -16.5t16 -43.5v-63h145q28 -1 44 -17.5t16 -43.5t-16 -43.5t-44 -16.5l-145 1v-64q0 -28 -16 -44.5t-44 -16.5t-44 16.5
t-16 43.5v65h-145q-28 -1 -44 15.5t-16 43.5t16 43.5t44 16.5l145 1v0z" />
    <glyph glyph-name="uni00B2" unicode="&#xb2;" 
 />
    <glyph glyph-name="uni00B3" unicode="&#xb3;" 
 />
    <glyph glyph-name="acute" unicode="&#xb4;" horiz-adv-x="222" 
d="M24 715l118 48q11 4 20.5 6.5t17.5 2.5q18 0 32.5 -14.5t19.5 -31.5q1 -4 1.5 -8t0.5 -8q0 -22 -10 -36.5t-31 -22.5l-112 -43q-12 -5 -17 -7t-8 -3q-2 -1 -5.5 -1h-9.5q-21 0 -35 20.5t-17 44.5v4v4v2.5t1 3.5q1 10 8 19t18 15l8 5v0z" />
    <glyph glyph-name="oslash" unicode="&#xb5;" horiz-adv-x="556" 
d="M41 -138v596q0 35 20.5 57t51.5 22q32 0 52 -22t20 -58v-256q0 -46 28.5 -70t64.5 -24t64.5 24t28.5 69v258q0 35 20.5 57t51.5 22q32 0 52 -22t20 -58v-383q0 -37 -20 -58.5t-52 -21.5q-31 0 -51.5 18.5t-20.5 49.5l-2 1q-10 -27 -25.5 -43.5t-31.5 -23.5q-9 -4 -18 -6
t-17 -2q-7 0 -15.5 1.5t-16.5 5.5q-17 5 -32.5 16.5t-25.5 25.5l-2 1v-176q0 -36 -20 -58t-52 -22q-31 0 -51.5 22t-20.5 58v0z" />
    <glyph glyph-name="paragraph" unicode="&#xb6;" horiz-adv-x="620" 
d="M238 -152v515q-109 -1 -166 44.5t-57 125.5q0 108 71 143t175 35l254 1q28 -1 44 -17.5t16 -43.5v-803q0 -27 -16 -43.5t-44 -16.5t-44 16.5t-16 43.5v774h-97v-774q0 -27 -16 -43.5t-44 -16.5t-44 16.5t-16 43.5v0z" />
    <glyph glyph-name="glyph265" unicode="&#xb7;" 
 />
    <glyph glyph-name="glyph121" unicode="&#xb8;" horiz-adv-x="222" 
d="M127 0h60l-39 -51q3 0 5.5 0.5t5.5 0.5q3 1 5.5 1.5t5.5 0.5q32 0 53.5 -20t21.5 -56q0 -40 -26.5 -62.5t-58.5 -28.5q-6 -2 -13 -2.5t-13 -0.5q-7 0 -17 0.5t-21 2.5q-19 4 -35.5 14.5t-16.5 32.5q0 11 7 18.5t17 7.5q4 0 10 -1.5t13 -3.5q3 -1 7.5 -2t8.5 -2
q2 0 4.5 -0.5t4.5 -0.5h0.5h1.5h1.5h0.5q12 0 20.5 5.5t8.5 22.5q0 20 -10.5 24t-23.5 4q-2 0 -3.5 0.5t-3.5 0.5q-11 1 -19 4t-8 18q0 3 2.5 8.5t5.5 11.5q1 1 2 2.5t2 3.5q3 4 5.5 8t4.5 6l24 33v0z" />
    <glyph glyph-name="uni00B9" unicode="&#xb9;" 
 />
    <glyph glyph-name="Agrave" unicode="&#xba;" horiz-adv-x="361" 
d="M181 724q74 -1 120.5 -51.5t46.5 -116.5q0 -67 -46 -116.5t-121 -49.5q-76 0 -122 49.5t-46 116.5q0 66 47 116.5t121 50.5v1zM181 469q31 -1 48.5 22t21.5 51q1 3 1 7v7v8t-1 8q-3 27 -20 50t-50 23t-50 -23t-21 -50q0 -4 -0.5 -8t-0.5 -8v-7t1 -7q3 -28 20.5 -51
t50.5 -23v1z" />
    <glyph glyph-name="Ydieresis" unicode="&#xbb;" horiz-adv-x="500" 
d="M48 158l79 123l-79 117q-7 9 -9 17.5t-2 15.5q0 26 16.5 44.5t43.5 18.5q15 0 28.5 -6.5t21.5 -18.5l103 -158q4 -6 5.5 -12t2.5 -13q1 -3 1 -6v-6q0 -4 -1 -9t-2 -9q-3 -7 -6.5 -14t-7.5 -13q-2 -3 -3.5 -6t-3.5 -5l-97 -136q-7 -9 -17.5 -13.5t-25.5 -4.5
q-27 0 -42.5 16.5t-15.5 38.5q0 10 2 19.5t9 18.5v1zM252 158l79 123l-79 117q-7 9 -9 17.5t-2 15.5q0 26 16.5 44.5t43.5 18.5q15 0 28.5 -6.5t21.5 -18.5l103 -158q4 -6 5.5 -12t2.5 -13q1 -3 1 -6v-6q0 -4 -1 -9t-2 -9q-3 -7 -6.5 -14t-7.5 -13q-2 -3 -3.5 -6t-3.5 -5
l-97 -136q-7 -9 -17.5 -13.5t-25.5 -4.5q-27 0 -42.5 16.5t-15.5 38.5q0 10 2 19.5t9 18.5v1z" />
    <glyph glyph-name="onequarter" unicode="&#xbc;" 
 />
    <glyph glyph-name="glyph243" unicode="&#xbd;" horiz-adv-x="861" 
d="M162 74l331 624q2 3 3.5 6t3.5 5q8 12 16.5 16t22.5 4q23 0 41 -16.5t18 -39.5v-1.5v-1.5q0 -5 -1.5 -11t-6.5 -16l-336 -628l-7 -10.5t-6 -7.5q-6 -7 -13 -11t-19 -4q-3 0 -5.5 0.5t-5.5 0.5q-17 5 -31.5 19.5t-14.5 33.5q0 8 2 16t5 14q1 2 1.5 4t1.5 3v1zM784 0h-227
q-19 0 -33 9t-14 30q0 8 4 15t9 13l0.5 0.5l1.5 1.5l26 28l26 28q1 1 2 1.5t1 1.5q28 29 55.5 59t50.5 62q9 12 16 25.5t7 29.5q0 19 -13 28.5t-33 9.5q-29 0 -39.5 -14t-15.5 -30q-1 -1 -1 -2t-1 -2q-5 -16 -13.5 -28.5t-31.5 -12.5t-35 15t-12 41q0 10 4 22.5t11 24.5
q17 29 52 52.5t86 23.5q60 0 102 -33t42 -90q0 -38 -22 -74t-48 -65q-19 -21 -36 -38.5t-26 -30.5l99 1q18 -1 32.5 -16.5t14.5 -37.5q0 -28 -11.5 -38t-29.5 -10v0zM114 329v287h-34q-23 -1 -33.5 13.5t-10.5 37.5t12 36.5t32 13.5l93 1q21 -1 32 -13t11 -30v-346
q0 -19 -13.5 -32t-37.5 -13q-22 0 -36.5 12t-14.5 32v1z" />
    <glyph glyph-name="threequarters" unicode="&#xbe;" 
 />
    <glyph glyph-name="oe" unicode="&#xbf;" horiz-adv-x="481" 
d="M334 260v-100q0 -24 -19 -33.5t-45 -15.5q-4 -2 -8.5 -3t-8.5 -2q-30 -8 -55 -24.5t-25 -60.5q0 -32 26 -53.5t57 -21.5q32 0 52 15.5t36 33.5q3 4 5.5 6.5l5.5 5.5q13 15 27.5 26t34.5 11q27 0 44 -19.5t17 -51.5q0 -60 -47.5 -99.5t-104.5 -55.5q-18 -5 -36 -7.5
t-34 -2.5q-97 0 -168 56.5t-71 156.5q0 83 48 133t125 69v37q0 29 20.5 48.5t51.5 19.5q34 0 53 -19.5t19 -49.5v1zM262 544q32 -1 55 -24t23 -55t-23 -55t-55 -23t-55 23t-23 55t23 55t55 23v1z" />
    <glyph glyph-name="currency" unicode="&#xc0;" horiz-adv-x="630" 
d="M9 97l201 544q13 34 41 58t66 24q40 0 67 -23.5t40 -59.5l196 -543q5 -13 6.5 -23t1.5 -15q0 -29 -20.5 -47t-48.5 -18q-31 0 -48 14.5t-25 36.5l-30 95h-278l-30 -93q-7 -24 -24 -38.5t-48 -14.5q-30 0 -52 19.5t-22 49.5q0 8 1 14t3 11q1 2 1.5 4.5t1.5 3.5v1zM316 568
l-95 -290h190l-93 290h-2v0zM284 925l118 -48l8 -4q11 -7 18.5 -16t8.5 -19q1 -2 1 -3.5v-2.5v-4v-4q-3 -24 -17.5 -44.5t-35.5 -20.5h-9.5t-5.5 1q-3 1 -8 3t-17 6l-112 45q-21 7 -31 21.5t-10 36.5q0 4 0.5 8t1.5 8q5 17 19.5 31.5t32.5 14.5q8 0 17.5 -2.5t20.5 -7.5v1z
" />
    <glyph glyph-name="breve" unicode="&#xc1;" horiz-adv-x="630" 
d="M9 97l201 544q13 34 41 58t66 24q40 0 67 -23.5t40 -59.5l196 -543q5 -13 6.5 -23t1.5 -15q0 -29 -20.5 -47t-48.5 -18q-31 0 -48 14.5t-25 36.5l-30 95h-278l-30 -93q-7 -24 -24 -38.5t-48 -14.5q-30 0 -52 19.5t-22 49.5q0 8 1 14t3 11q1 2 1.5 4.5t1.5 3.5v1zM316 568
l-95 -290h190l-93 290h-2v0zM228 877l118 48q11 4 20.5 6.5t17.5 2.5q18 0 32.5 -14.5t19.5 -31.5q1 -4 1.5 -8t0.5 -8q0 -22 -10 -36.5t-31 -22.5l-112 -43q-12 -5 -17 -7t-8 -3q-2 -1 -5.5 -1h-9.5q-21 0 -35.5 20.5t-17.5 44.5v4v4v2.5t1 3.5q1 10 8.5 19t18.5 15l8 5v0z
" />
    <glyph glyph-name="tilde" unicode="&#xc2;" horiz-adv-x="630" 
d="M9 97l201 544q13 34 41 58t66 24q40 0 67 -23.5t40 -59.5l196 -543q5 -13 6.5 -23t1.5 -15q0 -29 -20.5 -47t-48.5 -18q-31 0 -48 14.5t-25 36.5l-30 95h-278l-30 -93q-7 -24 -24 -38.5t-48 -14.5q-30 0 -52 19.5t-22 49.5q0 8 1 14t3 11q1 2 1.5 4.5t1.5 3.5v1zM316 568
l-95 -290h190l-93 290h-2v0zM209 883l106 43l106 -43q22 -10 34 -24t12 -38t-18.5 -44t-42.5 -20q-7 0 -18.5 4t-23.5 10v0v0q-3 1 -5.5 2t-4.5 2l-39 18l-39 -17q-2 -2 -4.5 -3t-5.5 -2v0v0q-12 -6 -23.5 -10t-18.5 -4q-24 0 -42.5 20t-18.5 44t12 38.5t34 22.5v1z" />
    <glyph glyph-name="guilsinglleft" unicode="&#xc3;" horiz-adv-x="630" 
d="M9 97l201 544q13 34 41 58t66 24q40 0 67 -23.5t40 -59.5l196 -543q5 -13 6.5 -23t1.5 -15q0 -29 -20.5 -47t-48.5 -18q-31 0 -48 14.5t-25 36.5l-30 95h-278l-30 -93q-7 -24 -24 -38.5t-48 -14.5q-30 0 -52 19.5t-22 49.5q0 8 1 14t3 11q1 2 1.5 4.5t1.5 3.5v1zM316 568
l-95 -290h190l-93 290h-2v0zM199 767q-17 -1 -32 13.5t-18 32.5v2.5v2.5q0 41 28 64.5t67 23.5q17 0 33.5 -4t30.5 -8l27 -9t21 -4q8 0 17 4.5t19 10.5q5 2 10 4.5t10 4.5t11 3.5t11 1.5q23 0 35 -17.5t12 -38.5q0 -35 -27.5 -59t-60.5 -27q-2 -1 -4.5 -1h-5.5q-10 0 -23 3
l-26 6l-6 2t-5 1q-16 5 -30 9t-23 4q-7 0 -13 -2.5t-11 -5.5q-2 -1 -4 -2.5t-4 -2.5q-8 -5 -17 -9t-22 -4v1z" />
    <glyph glyph-name="Adieresis" unicode="&#xc4;" horiz-adv-x="630" 
d="M9 97l201 544q13 34 41 58t66 24q40 0 67 -23.5t40 -59.5l196 -543q5 -13 6.5 -23t1.5 -15q0 -29 -20.5 -47t-48.5 -18q-31 0 -48 14.5t-25 36.5l-30 95h-278l-30 -93q-7 -24 -24 -38.5t-48 -14.5q-30 0 -52 19.5t-22 49.5q0 8 1 14t3 11q1 2 1.5 4.5t1.5 3.5v1zM316 568
l-95 -290h190l-93 290h-2v0zM133 837q0 29 21 50t51 21t51 -21t21 -51t-21 -51t-51 -21t-51 21t-21 51v1zM353 837q0 29 21 50t51 21t51 -21t21 -51t-21 -51t-51 -21t-51 21t-21 51v1z" />
    <glyph glyph-name="Aring" unicode="&#xc5;" horiz-adv-x="630" 
d="M9 97l201 544q13 34 41 58t66 24q40 0 67 -23.5t40 -59.5l196 -543q5 -13 6.5 -23t1.5 -15q0 -29 -20.5 -47t-48.5 -18q-31 0 -48 14.5t-25 36.5l-30 95h-278l-30 -93q-7 -24 -24 -38.5t-48 -14.5q-30 0 -52 19.5t-22 49.5q0 8 1 14t3 11q1 2 1.5 4.5t1.5 3.5v1zM316 568
l-95 -290h190l-93 290h-2v0zM216 840q0 40 29 69t70 29t70 -29t29 -70t-29 -70t-70 -29t-70 29t-29 70v1zM270 840q0 -20 13 -33t32 -13t32 13t13 32t-13 32t-32 13t-32 -13t-13 -32v1z" />
    <glyph glyph-name="Oslash" unicode="&#xc6;" horiz-adv-x="833" 
d="M10 105l310 573q1 1 2 3t3 4q6 10 20.5 18t44.5 8l351 1q36 -1 53.5 -22.5t17.5 -47.5v-1.5v-1.5q-1 -25 -19 -45.5t-52 -20.5l-176 1v-146h164q37 -1 55 -22.5t18 -47.5v-1.5v-1.5q-1 -25 -19.5 -45.5t-53.5 -20.5l-164 1v-152h185q36 -1 53.5 -22.5t17.5 -47.5v-1.5
v-1.5q-1 -25 -19 -45t-52 -20h-258q-33 0 -55 20t-22 54v51h-229l-47 -82q-12 -22 -29.5 -35.5t-41.5 -13.5q-28 0 -49.5 16.5t-21.5 45.5q0 10 1.5 17t3.5 14q1 4 3 8t5 9v1zM413 550l-158 -290h160v290h-2v0z" />
    <glyph glyph-name="Ccedilla" unicode="&#xc7;" horiz-adv-x="611" 
d="M322 0h60l-39 -51q3 0 5.5 0.5t5.5 0.5q3 1 5.5 1.5t5.5 0.5q32 0 53.5 -20t21.5 -56q0 -40 -26.5 -62.5t-58.5 -28.5q-6 -2 -13 -2.5t-13 -0.5q-7 0 -17 0.5t-21 2.5q-19 4 -35.5 14.5t-16.5 32.5q0 11 7 18.5t17 7.5q4 0 10 -1.5t13 -3.5q3 -1 7.5 -2t8.5 -2
q2 0 4.5 -0.5t4.5 -0.5h0.5h1.5h1.5h0.5q12 0 20.5 5.5t8.5 22.5q0 20 -10.5 24t-23.5 4q-2 0 -3.5 0.5t-3.5 0.5q-11 1 -19 4t-8 18q0 3 2.5 8.5t5.5 11.5q1 1 2 2.5t2 3.5q3 4 5.5 8t4.5 6l24 33v0zM17 356q0 155 95.5 261t248.5 106q18 0 40.5 -2t45.5 -7
q49 -10 89 -34.5t40 -68.5q0 -27 -17 -47t-45 -20q-6 0 -11.5 1t-10.5 2q-9 3 -18.5 6.5t-19.5 8.5q-17 6 -39 11.5t-54 5.5q-93 0 -140.5 -67.5t-47.5 -159.5q0 -89 48 -155t140 -66q32 0 55 6.5t41 14.5q13 6 25 11.5t23 7.5q4 1 7.5 1.5t7.5 0.5q23 0 37.5 -12.5
t21.5 -28.5q4 -7 5.5 -14t1.5 -13q0 -48 -41.5 -73t-90.5 -34q-26 -6 -50 -8t-43 -2q-152 0 -248 106t-96 261v1z" />
    <glyph glyph-name="ring" unicode="&#xc8;" horiz-adv-x="463" 
d="M45 75v550q0 37 19 61.5t59 24.5l248 1q36 -1 53.5 -22.5t17.5 -47.5v-1.5v-1.5q-1 -25 -19 -45.5t-52 -20.5l-176 1v-146h164q37 -1 55 -22.5t18 -47.5v-1.5v-1.5q-1 -25 -19.5 -45.5t-53.5 -20.5l-164 1v-152h185q36 -1 53.5 -22.5t17.5 -47.5v-1.5v-1.5
q-1 -25 -19 -45t-52 -20h-258q-33 0 -55 20t-22 54v1zM201 925l118 -48l8 -4q11 -7 18.5 -16t8.5 -19q1 -2 1 -3.5v-2.5v-4v-4q-3 -24 -17.5 -44.5t-35.5 -20.5h-9.5t-5.5 1q-3 1 -8 3t-17 6l-112 45q-21 7 -31 21.5t-10 36.5q0 4 0.5 8t1.5 8q5 17 19.5 31.5t32.5 14.5
q8 0 17.5 -2.5t20.5 -7.5v1z" />
    <glyph glyph-name="Eacute" unicode="&#xc9;" horiz-adv-x="463" 
d="M45 75v550q0 37 19 61.5t59 24.5l248 1q36 -1 53.5 -22.5t17.5 -47.5v-1.5v-1.5q-1 -25 -19 -45.5t-52 -20.5l-176 1v-146h164q37 -1 55 -22.5t18 -47.5v-1.5v-1.5q-1 -25 -19.5 -45.5t-53.5 -20.5l-164 1v-152h185q36 -1 53.5 -22.5t17.5 -47.5v-1.5v-1.5
q-1 -25 -19 -45t-52 -20h-258q-33 0 -55 20t-22 54v1zM145 877l118 48q11 4 20.5 6.5t17.5 2.5q18 0 32.5 -14.5t19.5 -31.5q1 -4 1.5 -8t0.5 -8q0 -22 -10 -36.5t-31 -22.5l-112 -43q-12 -5 -17 -7t-8 -3q-2 -1 -5.5 -1h-9.5q-21 0 -35.5 20.5t-17.5 44.5v4v4v2.5t1 3.5
q1 10 8.5 19t18.5 15l8 5v0z" />
    <glyph glyph-name="macron" unicode="&#xca;" horiz-adv-x="463" 
d="M45 75v550q0 37 19 61.5t59 24.5l248 1q36 -1 53.5 -22.5t17.5 -47.5v-1.5v-1.5q-1 -25 -19 -45.5t-52 -20.5l-176 1v-146h164q37 -1 55 -22.5t18 -47.5v-1.5v-1.5q-1 -25 -19.5 -45.5t-53.5 -20.5l-164 1v-152h185q36 -1 53.5 -22.5t17.5 -47.5v-1.5v-1.5
q-1 -25 -19 -45t-52 -20h-258q-33 0 -55 20t-22 54v1zM126 883l106 43l106 -43q22 -10 34 -24t12 -38t-18.5 -44t-42.5 -20q-7 0 -18.5 4t-23.5 10v0v0q-3 1 -5.5 2t-4.5 2l-39 18l-39 -17q-2 -2 -4.5 -3t-5.5 -2v0v0q-12 -6 -23.5 -10t-18.5 -4q-24 0 -42.5 20t-18.5 44
t12 38.5t34 22.5v1z" />
    <glyph glyph-name="dotaccent" unicode="&#xcb;" horiz-adv-x="463" 
d="M45 75v550q0 37 19 61.5t59 24.5l248 1q36 -1 53.5 -22.5t17.5 -47.5v-1.5v-1.5q-1 -25 -19 -45.5t-52 -20.5l-176 1v-146h164q37 -1 55 -22.5t18 -47.5v-1.5v-1.5q-1 -25 -19.5 -45.5t-53.5 -20.5l-164 1v-152h185q36 -1 53.5 -22.5t17.5 -47.5v-1.5v-1.5
q-1 -25 -19 -45t-52 -20h-258q-33 0 -55 20t-22 54v1zM50 837q0 29 21 50t51 21t51 -21t21 -51t-21 -51t-51 -21t-51 21t-21 51v1zM270 837q0 29 21 50t51 21t51 -21t21 -51t-21 -51t-51 -21t-51 21t-21 51v1z" />
    <glyph glyph-name="caron" unicode="&#xcc;" horiz-adv-x="240" 
d="M45 72v568q0 37 21.5 57t53.5 20t53.5 -20t21.5 -58v-567q0 -38 -21.5 -58t-53.5 -20t-53.5 20t-21.5 57v1zM89 925l118 -48l8 -4q11 -7 18.5 -16t8.5 -19q1 -2 1 -3.5v-2.5v-4v-4q-3 -24 -17.5 -44.5t-35.5 -20.5h-9.5t-5.5 1q-3 1 -8 3t-17 6l-112 45q-21 7 -30.5 21.5
t-9.5 36.5q0 4 0.5 8t1.5 8q4 17 18.5 31.5t32.5 14.5q8 0 17.5 -2.5t20.5 -7.5v1z" />
    <glyph glyph-name="cedilla" unicode="&#xcd;" horiz-adv-x="240" 
d="M45 72v568q0 37 21.5 57t53.5 20t53.5 -20t21.5 -58v-567q0 -38 -21.5 -58t-53.5 -20t-53.5 20t-21.5 57v1zM33 877l118 48q11 4 20.5 6.5t17.5 2.5q18 0 32.5 -14.5t19.5 -31.5q1 -4 1.5 -8t0.5 -8q0 -22 -10 -36.5t-31 -22.5l-112 -43q-12 -5 -17 -7t-8 -3
q-2 -1 -5.5 -1h-9.5q-21 0 -35.5 20.5t-16.5 44.5v4v4v2.5t1 3.5q1 10 8 19t18 15l8 5v0z" />
    <glyph glyph-name="hungarumlaut" unicode="&#xce;" horiz-adv-x="240" 
d="M45 72v568q0 37 21.5 57t53.5 20t53.5 -20t21.5 -58v-567q0 -38 -21.5 -58t-53.5 -20t-53.5 20t-21.5 57v1zM14 883l106 43l106 -43q22 -10 34 -24t12 -38t-18.5 -44t-42.5 -20q-7 0 -18.5 4t-23.5 10v0v0q-3 1 -5.5 2t-4.5 2l-39 18l-39 -17q-2 -2 -4.5 -3t-5.5 -2v0v0
q-12 -6 -23.5 -10t-18.5 -4q-24 0 -42 20t-18 44t12 38.5t33 22.5v1z" />
    <glyph glyph-name="ogonek" unicode="&#xcf;" horiz-adv-x="240" 
d="M45 72v568q0 37 21.5 57t53.5 20t53.5 -20t21.5 -58v-567q0 -38 -21.5 -58t-53.5 -20t-53.5 20t-21.5 57v1zM-62 837q1 29 22 50t50 21q30 0 51 -21t21 -51t-21 -51t-51 -21q-29 0 -50 21t-21 51zM158 837q0 29 21 50t51 21t51 -21t21 -51t-21 -51t-51 -21t-51 21t-21 51
v1z" />
    <glyph glyph-name="glyph232" unicode="&#xd0;" horiz-adv-x="667" 
d="M45 75v229h-27q-29 -1 -45 16t-17 37v1.5v1.5q0 22 15.5 39.5t46.5 17.5l27 1v217q0 34 21.5 55t55.5 21l166 1q168 -1 260 -100.5t92 -266.5q0 -157 -93.5 -251t-248.5 -94h-174h-11t-12 2q-21 5 -38.5 22t-17.5 50v1zM195 574v-156h82q32 -1 47.5 -18.5t15.5 -39.5
v-1.5v-1.5q-1 -20 -17 -37t-46 -17l-82 1v-166h101q97 -1 142.5 61.5t45.5 152.5q0 96 -47 158.5t-151 62.5l-91 1v0z" />
    <glyph glyph-name="Ntilde" unicode="&#xd1;" horiz-adv-x="685" 
d="M39 72v568q0 37 21.5 57t53.5 20q6 0 13 -1.5t14 -4.5q10 -5 20 -12t16 -15l317 -422h2v378q0 37 21.5 57t53.5 20t53.5 -20t21.5 -58v-567q0 -38 -21.5 -58t-53.5 -20q-6 0 -13 2l-14 4q-10 4 -20 11t-16 15l-317 419h-2v-373q0 -38 -21.5 -58t-53.5 -20t-53.5 20
t-21.5 57v1zM227 767q-17 -1 -32 13.5t-18 32.5v2.5v2.5q0 41 28 64.5t67 23.5q17 0 33.5 -4t30.5 -8l27 -9t21 -4q8 0 17 4.5t19 10.5q5 2 10 4.5t10 4.5t11 3.5t11 1.5q23 0 35 -17.5t12 -38.5q0 -35 -27.5 -59t-60.5 -27q-2 -1 -4.5 -1h-5.5q-10 0 -23 3l-26 6l-6 2t-5 1
q-16 5 -30 9t-23 4q-7 0 -13 -2.5t-11 -5.5q-2 -1 -4 -2.5t-4 -2.5q-8 -5 -17 -9t-22 -4v1z" />
    <glyph glyph-name="scaron" unicode="&#xd2;" 
 />
    <glyph glyph-name="Lslash" unicode="&#xd3;" horiz-adv-x="722" 
d="M361 -12q-152 0 -248 106t-96 261q0 156 95.5 262t248.5 106q151 0 247.5 -108t96.5 -260q0 -155 -95 -261t-249 -106v0zM361 126q95 -1 141.5 68.5t46.5 160.5t-47 160.5t-141 69.5t-141 -69.5t-47 -160.5t46.5 -160.5t141.5 -69.5v1zM274 877l118 48q11 4 20.5 6.5
t17.5 2.5q18 0 32.5 -14.5t19.5 -31.5q1 -4 1.5 -8t0.5 -8q0 -22 -10 -36.5t-31 -22.5l-112 -43q-12 -5 -17 -7t-8 -3q-2 -1 -5.5 -1h-9.5q-21 0 -35.5 20.5t-17.5 44.5v4v4v2.5t1 3.5q1 10 8.5 19t18.5 15l8 5v0z" />
    <glyph glyph-name="lslash" unicode="&#xd4;" horiz-adv-x="722" 
d="M361 -12q-152 0 -248 106t-96 261q0 156 95.5 262t248.5 106q151 0 247.5 -108t96.5 -260q0 -155 -95 -261t-249 -106v0zM361 126q95 -1 141.5 68.5t46.5 160.5t-47 160.5t-141 69.5t-141 -69.5t-47 -160.5t46.5 -160.5t141.5 -69.5v1zM255 883l106 43l106 -43
q22 -10 34 -24t12 -38t-18.5 -44t-42.5 -20q-7 0 -18.5 4t-23.5 10v0v0q-3 1 -5.5 2t-4.5 2l-39 18l-39 -17q-2 -2 -4.5 -3t-5.5 -2v0v0q-12 -6 -23.5 -10t-18.5 -4q-24 0 -42.5 20t-18.5 44t12 38.5t34 22.5v1z" />
    <glyph glyph-name="guilsinglright" unicode="&#xd5;" horiz-adv-x="722" 
d="M361 -12q-152 0 -248 106t-96 261q0 156 95.5 262t248.5 106q151 0 247.5 -108t96.5 -260q0 -155 -95 -261t-249 -106v0zM361 126q95 -1 141.5 68.5t46.5 160.5t-47 160.5t-141 69.5t-141 -69.5t-47 -160.5t46.5 -160.5t141.5 -69.5v1zM245 767q-17 -1 -32 13.5t-18 32.5
v2.5v2.5q0 41 28 64.5t67 23.5q17 0 33.5 -4t30.5 -8l27 -9t21 -4q8 0 17 4.5t19 10.5q5 2 10 4.5t10 4.5t11 3.5t11 1.5q23 0 35 -17.5t12 -38.5q0 -35 -27.5 -59t-60.5 -27q-2 -1 -4.5 -1h-5.5q-10 0 -23 3l-26 6l-6 2t-5 1q-16 5 -30 9t-23 4q-7 0 -13 -2.5t-11 -5.5
q-2 -1 -4 -2.5t-4 -2.5q-8 -5 -17 -9t-22 -4v1z" />
    <glyph glyph-name="Odieresis" unicode="&#xd6;" horiz-adv-x="722" 
d="M361 -12q-152 0 -248 106t-96 261q0 156 95.5 262t248.5 106q151 0 247.5 -108t96.5 -260q0 -155 -95 -261t-249 -106v0zM361 126q95 -1 141.5 68.5t46.5 160.5t-47 160.5t-141 69.5t-141 -69.5t-47 -160.5t46.5 -160.5t141.5 -69.5v1zM179 837q0 29 21 50t51 21t51 -21
t21 -51t-21 -51t-51 -21t-51 21t-21 51v1zM399 837q0 29 21 50t51 21t51 -21t21 -51t-21 -51t-51 -21t-51 21t-21 51v1z" />
    <glyph glyph-name="multiply" unicode="&#xd7;" 
 />
    <glyph glyph-name="plusminus" unicode="&#xd8;" horiz-adv-x="722" 
d="M14 58l70 71q-32 46 -49.5 104t-17.5 122q0 156 95.5 262t248.5 106q66 0 121 -20t95 -56l48 49q2 1 4.5 4t4.5 5q9 9 20 16.5t27 7.5h3.5t3.5 -1q13 -2 23.5 -11.5t10.5 -22.5q0 -4 -0.5 -10t-2.5 -12q-2 -2 -3.5 -5t-3.5 -6l-76 -77q32 -48 50.5 -106t18.5 -123
q0 -155 -95 -261t-249 -106q-67 0 -122 19.5t-96 55.5l-62 -62q-7 -8 -17 -13.5t-22 -5.5h-2.5h-2.5q-14 3 -25.5 15.5t-11.5 28.5q0 9 4 16.5t10 14.5v1zM527 470l-283 -301q20 -21 49.5 -32.5t67.5 -11.5q95 0 141.5 69.5t46.5 160.5q0 31 -5 60t-17 54v1zM194 244
l283 300q-21 19 -49.5 30t-66.5 11q-94 0 -141 -69.5t-47 -160.5q0 -30 5 -58.5t16 -53.5v1z" />
    <glyph glyph-name="Thorn" unicode="&#xd9;" horiz-adv-x="685" 
d="M39 283v357q0 37 21.5 57t53.5 20t53.5 -20t21.5 -58v-348q0 -70 41.5 -118t112.5 -48q68 0 110.5 49.5t42.5 115.5v350q0 37 21.5 57t53.5 20t53.5 -20t21.5 -58v-356q0 -127 -89.5 -211t-213.5 -84q-125 0 -214.5 83.5t-89.5 210.5v1zM312 925l118 -48l8 -4
q11 -7 18.5 -16t8.5 -19q1 -2 1 -3.5v-2.5v-4v-4q-3 -24 -17.5 -44.5t-35.5 -20.5h-9.5t-5.5 1q-3 1 -8 3t-17 6l-112 45q-21 7 -31 21.5t-10 36.5q0 4 0.5 8t1.5 8q5 17 19.5 31.5t32.5 14.5q8 0 17.5 -2.5t20.5 -7.5v1z" />
    <glyph glyph-name="Eth" unicode="&#xda;" horiz-adv-x="685" 
d="M39 283v357q0 37 21.5 57t53.5 20t53.5 -20t21.5 -58v-348q0 -70 41.5 -118t112.5 -48q68 0 110.5 49.5t42.5 115.5v350q0 37 21.5 57t53.5 20t53.5 -20t21.5 -58v-356q0 -127 -89.5 -211t-213.5 -84q-125 0 -214.5 83.5t-89.5 210.5v1zM256 877l118 48q11 4 20.5 6.5
t17.5 2.5q18 0 32.5 -14.5t19.5 -31.5q1 -4 1.5 -8t0.5 -8q0 -22 -10 -36.5t-31 -22.5l-112 -43q-12 -5 -17 -7t-8 -3q-2 -1 -5.5 -1h-9.5q-21 0 -35.5 20.5t-17.5 44.5v4v4v2.5t1 3.5q1 10 8.5 19t18.5 15l8 5v0z" />
    <glyph glyph-name="eth" unicode="&#xdb;" horiz-adv-x="685" 
d="M39 283v357q0 37 21.5 57t53.5 20t53.5 -20t21.5 -58v-348q0 -70 41.5 -118t112.5 -48q68 0 110.5 49.5t42.5 115.5v350q0 37 21.5 57t53.5 20t53.5 -20t21.5 -58v-356q0 -127 -89.5 -211t-213.5 -84q-125 0 -214.5 83.5t-89.5 210.5v1zM237 883l106 43l106 -43
q22 -10 34 -24t12 -38t-18.5 -44t-42.5 -20q-7 0 -18.5 4t-23.5 10v0v0q-3 1 -5.5 2t-4.5 2l-39 18l-39 -17q-2 -2 -4.5 -3t-5.5 -2v0v0q-12 -6 -23.5 -10t-18.5 -4q-24 0 -42.5 20t-18.5 44t12 38.5t34 22.5v1z" />
    <glyph glyph-name="Udieresis" unicode="&#xdc;" horiz-adv-x="685" 
d="M39 283v357q0 37 21.5 57t53.5 20t53.5 -20t21.5 -58v-348q0 -70 41.5 -118t112.5 -48q68 0 110.5 49.5t42.5 115.5v350q0 37 21.5 57t53.5 20t53.5 -20t21.5 -58v-356q0 -127 -89.5 -211t-213.5 -84q-125 0 -214.5 83.5t-89.5 210.5v1zM161 837q0 29 21 50t51 21t51 -21
t21 -51t-21 -51t-51 -21t-51 21t-21 51v1zM381 837q0 29 21 50t51 21t51 -21t21 -51t-21 -51t-51 -21t-51 21t-21 51v1z" />
    <glyph glyph-name="Yacute" unicode="&#xdd;" 
 />
    <glyph glyph-name="glyph236" unicode="&#xde;" horiz-adv-x="556" 
d="M45 72v568q0 37 21.5 57t53.5 20t53.5 -20t21.5 -58v-27h105q110 -1 183 -67t73 -173q0 -109 -73.5 -173t-176.5 -64l-111 1v-64q0 -38 -21.5 -58t-53.5 -20t-53.5 20t-21.5 57v1zM195 480v-212h102q47 -1 75 29.5t28 75.5t-28 75.5t-75 30.5l-102 1v0z" />
    <glyph glyph-name="germandbls" unicode="&#xdf;" horiz-adv-x="556" 
d="M39 74v442q0 106 59 179.5t172 73.5q91 0 153.5 -57t62.5 -149q0 -7 -0.5 -13.5t-1.5 -13.5q-4 -34 -20 -65t-46 -49q62 -18 91.5 -71t32.5 -113v-6v-6q0 -11 -1 -21.5t-3 -21.5q-14 -73 -70.5 -134t-144.5 -61q-46 0 -66.5 21t-20.5 50q0 35 24 46t53 18q1 0 2.5 0.5
t2.5 0.5q32 7 56 34.5t24 67.5q0 63 -26 83.5t-58 28.5q-4 1 -7.5 2t-6.5 2q-28 7 -49 18.5t-21 49.5q0 33 16 44.5t36 18.5q2 1 3.5 1.5t3.5 1.5q22 8 40.5 24.5t18.5 62.5v2.5v2.5q-2 26 -23.5 47.5t-54.5 21.5q-57 0 -72 -38t-15 -84v-441q0 -37 -20 -58.5t-52 -21.5
q-31 0 -51.5 21.5t-20.5 57.5v1z" />
    <glyph glyph-name="agrave" unicode="&#xe0;" horiz-adv-x="574" 
d="M533 444v-356v-16t-1 -17q-3 -23 -16.5 -42t-51.5 -19q-31 0 -46 16t-23 44q-28 -33 -62 -49.5t-75 -16.5q-101 0 -169.5 77.5t-68.5 198.5q0 119 69.5 199t168.5 80q40 0 76.5 -16t60.5 -50q3 26 23 43t46 17q38 0 51.5 -19.5t16.5 -42.5q1 -9 1 -17v-15v1zM164 265
v-9.5t1 -9.5q4 -47 31.5 -87t81.5 -40q52 0 79 40t31 87q1 5 1 9.5v8.5q0 5 -0.5 10.5t-0.5 11.5q-5 47 -32 86t-78 39q-53 0 -80.5 -39t-32.5 -86q0 -6 -0.5 -11.5t-0.5 -10.5v1zM256 763l118 -48l8 -4q11 -7 18.5 -16t8.5 -19q1 -2 1 -3.5v-2.5v-4v-4q-3 -24 -17.5 -44.5
t-35.5 -20.5h-9.5t-5.5 1q-3 1 -8 3t-17 6l-112 45q-21 7 -31 21.5t-10 36.5q0 4 0.5 8t1.5 8q5 17 19.5 31.5t32.5 14.5q8 0 17.5 -2.5t20.5 -7.5v1z" />
    <glyph glyph-name="aacute" unicode="&#xe1;" horiz-adv-x="574" 
d="M533 444v-356v-16t-1 -17q-3 -23 -16.5 -42t-51.5 -19q-31 0 -46 16t-23 44q-28 -33 -62 -49.5t-75 -16.5q-101 0 -169.5 77.5t-68.5 198.5q0 119 69.5 199t168.5 80q40 0 76.5 -16t60.5 -50q3 26 23 43t46 17q38 0 51.5 -19.5t16.5 -42.5q1 -9 1 -17v-15v1zM164 265
v-9.5t1 -9.5q4 -47 31.5 -87t81.5 -40q52 0 79 40t31 87q1 5 1 9.5v8.5q0 5 -0.5 10.5t-0.5 11.5q-5 47 -32 86t-78 39q-53 0 -80.5 -39t-32.5 -86q0 -6 -0.5 -11.5t-0.5 -10.5v1zM200 715l118 48q11 4 20.5 6.5t17.5 2.5q18 0 32.5 -14.5t19.5 -31.5q1 -4 1.5 -8t0.5 -8
q0 -22 -10 -36.5t-31 -22.5l-112 -43q-12 -5 -17 -7t-8 -3q-2 -1 -5.5 -1h-9.5q-21 0 -35.5 20.5t-17.5 44.5v4v4v2.5t1 3.5q1 10 8.5 19t18.5 15l8 5v0z" />
    <glyph glyph-name="acircumflex" unicode="&#xe2;" horiz-adv-x="574" 
d="M533 444v-356v-16t-1 -17q-3 -23 -16.5 -42t-51.5 -19q-31 0 -46 16t-23 44q-28 -33 -62 -49.5t-75 -16.5q-101 0 -169.5 77.5t-68.5 198.5q0 119 69.5 199t168.5 80q40 0 76.5 -16t60.5 -50q3 26 23 43t46 17q38 0 51.5 -19.5t16.5 -42.5q1 -9 1 -17v-15v1zM164 265
v-9.5t1 -9.5q4 -47 31.5 -87t81.5 -40q52 0 79 40t31 87q1 5 1 9.5v8.5q0 5 -0.5 10.5t-0.5 11.5q-5 47 -32 86t-78 39q-53 0 -80.5 -39t-32.5 -86q0 -6 -0.5 -11.5t-0.5 -10.5v1zM181 721l106 43l106 -43q22 -10 34 -24t12 -38t-18.5 -44t-42.5 -20q-7 0 -18.5 4t-23.5 10
v0v0q-3 1 -5.5 2t-4.5 2l-39 18l-39 -17q-2 -2 -4.5 -3t-5.5 -2v0v0q-12 -6 -23.5 -10t-18.5 -4q-24 0 -42.5 20t-18.5 44t12 38.5t34 22.5v1z" />
    <glyph glyph-name="atilde" unicode="&#xe3;" horiz-adv-x="574" 
d="M533 444v-356v-16t-1 -17q-3 -23 -16.5 -42t-51.5 -19q-31 0 -46 16t-23 44q-28 -33 -62 -49.5t-75 -16.5q-101 0 -169.5 77.5t-68.5 198.5q0 119 69.5 199t168.5 80q40 0 76.5 -16t60.5 -50q3 26 23 43t46 17q38 0 51.5 -19.5t16.5 -42.5q1 -9 1 -17v-15v1zM164 265
v-9.5t1 -9.5q4 -47 31.5 -87t81.5 -40q52 0 79 40t31 87q1 5 1 9.5v8.5q0 5 -0.5 10.5t-0.5 11.5q-5 47 -32 86t-78 39q-53 0 -80.5 -39t-32.5 -86q0 -6 -0.5 -11.5t-0.5 -10.5v1zM171 605q-17 -1 -32 13.5t-18 32.5v2.5v2.5q0 41 28 64.5t67 23.5q17 0 33.5 -4t30.5 -8
l27 -9t21 -4q8 0 17 4.5t19 10.5q5 2 10 4.5t10 4.5t11 3.5t11 1.5q23 0 35 -17.5t12 -38.5q0 -35 -27.5 -59t-60.5 -27q-2 -1 -4.5 -1h-5.5q-10 0 -23 3l-26 6l-6 2t-5 1q-16 5 -30 9t-23 4q-7 0 -13 -2.5t-11 -5.5q-2 -1 -4 -2.5t-4 -2.5q-8 -5 -17 -9t-22 -4v1z" />
    <glyph glyph-name="adieresis" unicode="&#xe4;" horiz-adv-x="574" 
d="M533 444v-356v-16t-1 -17q-3 -23 -16.5 -42t-51.5 -19q-31 0 -46 16t-23 44q-28 -33 -62 -49.5t-75 -16.5q-101 0 -169.5 77.5t-68.5 198.5q0 119 69.5 199t168.5 80q40 0 76.5 -16t60.5 -50q3 26 23 43t46 17q38 0 51.5 -19.5t16.5 -42.5q1 -9 1 -17v-15v1zM164 265
v-9.5t1 -9.5q4 -47 31.5 -87t81.5 -40q52 0 79 40t31 87q1 5 1 9.5v8.5q0 5 -0.5 10.5t-0.5 11.5q-5 47 -32 86t-78 39q-53 0 -80.5 -39t-32.5 -86q0 -6 -0.5 -11.5t-0.5 -10.5v1zM105 675q0 29 21 50t51 21t51 -21t21 -51t-21 -51t-51 -21t-51 21t-21 51v1zM325 675
q0 29 21 50t51 21t51 -21t21 -51t-21 -51t-51 -21t-51 21t-21 51v1z" />
    <glyph glyph-name="aring" unicode="&#xe5;" horiz-adv-x="574" 
d="M533 444v-356v-16t-1 -17q-3 -23 -16.5 -42t-51.5 -19q-31 0 -46 16t-23 44q-28 -33 -62 -49.5t-75 -16.5q-101 0 -169.5 77.5t-68.5 198.5q0 119 69.5 199t168.5 80q40 0 76.5 -16t60.5 -50q3 26 23 43t46 17q38 0 51.5 -19.5t16.5 -42.5q1 -9 1 -17v-15v1zM164 265
v-9.5t1 -9.5q4 -47 31.5 -87t81.5 -40q52 0 79 40t31 87q1 5 1 9.5v8.5q0 5 -0.5 10.5t-0.5 11.5q-5 47 -32 86t-78 39q-53 0 -80.5 -39t-32.5 -86q0 -6 -0.5 -11.5t-0.5 -10.5v1zM188 678q0 40 29 69t70 29t70 -29t29 -70t-29 -70t-70 -29t-70 29t-29 70v1zM242 678
q0 -20 13 -33t32 -13t32 13t13 32t-13 32t-32 13t-32 -13t-13 -32v1z" />
    <glyph glyph-name="Otilde" unicode="&#xe6;" horiz-adv-x="907" 
d="M834 218h-307q8 -54 47.5 -79.5t89.5 -25.5q27 0 50.5 9t43.5 20t37 20t31 9q23 0 41 -19.5t18 -42.5q0 -40 -59 -74t-130 -44q-12 -1 -23.5 -2t-22.5 -1h-11.5t-11.5 1q-31 2 -61.5 11.5t-55.5 28.5q-5 -15 -16.5 -25t-37.5 -10q-33 0 -47 16.5t-14 43.5l-2 1
q-25 -33 -59 -50t-76 -17q-101 0 -169.5 77.5t-68.5 198.5q0 119 69.5 199t168.5 80q41 0 77.5 -16.5t61.5 -49.5l2 1q0 28 17 43.5t40 15.5q25 0 37.5 -11t16.5 -29q26 24 58.5 35t67.5 11q104 0 182.5 -78.5t78.5 -183.5q0 -32 -15 -48t-48 -16v1zM164 265v-9.5t1 -9.5
q4 -47 31.5 -87t81.5 -40q52 0 79 40t31 87q1 5 1 9.5v8.5q0 5 -0.5 10.5t-0.5 11.5q-5 47 -32 86t-78 39q-53 0 -80.5 -39t-32.5 -86q0 -6 -0.5 -11.5t-0.5 -10.5v1zM525 314h228q-6 46 -35 77.5t-79 31.5q-48 0 -78.5 -32t-35.5 -78v1z" />
    <glyph glyph-name="ccedilla" unicode="&#xe7;" horiz-adv-x="463" 
d="M248 0h60l-39 -51q3 0 5.5 0.5t5.5 0.5q3 1 5.5 1.5t5.5 0.5q32 0 53.5 -20t21.5 -56q0 -40 -26.5 -62.5t-58.5 -28.5q-6 -2 -13 -2.5t-13 -0.5q-7 0 -17 0.5t-21 2.5q-19 4 -35.5 14.5t-16.5 32.5q0 11 7 18.5t17 7.5q4 0 10 -1.5t13 -3.5q3 -1 7.5 -2t8.5 -2
q2 0 4.5 -0.5t4.5 -0.5h0.5h1.5h1.5h0.5q12 0 20.5 5.5t8.5 22.5q0 20 -10.5 24t-23.5 4q-2 0 -3.5 0.5t-3.5 0.5q-11 1 -19 4t-8 18q0 3 2.5 8.5t5.5 11.5q1 1 2 2.5t2 3.5q3 4 5.5 8t4.5 6l24 33v0zM454 453q0 -5 -0.5 -9.5t-1.5 -9.5q-5 -19 -18.5 -35t-34.5 -16
q-6 0 -12 1t-12 3q-7 2 -14.5 4.5t-14.5 5.5q-14 5 -29 9.5t-32 4.5q-61 0 -91 -45.5t-30 -101.5v-4v-4q3 -52 34 -94.5t87 -42.5q9 0 19 2t20 6q6 1 11 3t11 4q15 6 27.5 10.5t18.5 4.5q26 0 44 -18.5t18 -44.5q0 -35 -31 -56t-68 -31q-22 -6 -42.5 -8.5t-34.5 -2.5
q-116 0 -187 82t-71 194q0 110 72 194.5t186 84.5q15 0 34 -2t39 -7q39 -8 71 -27.5t32 -54.5v1z" />
    <glyph glyph-name="egrave" unicode="&#xe8;" horiz-adv-x="537" 
d="M464 218h-307q8 -54 47 -79.5t89 -25.5q28 0 51.5 9t43.5 20t37 20t31 9q23 0 41 -19.5t18 -42.5q0 -40 -59 -74t-130 -44q-12 -1 -23.5 -2t-22.5 -1q-121 0 -195.5 78.5t-74.5 197.5q0 110 72 194.5t186 84.5q101 0 168.5 -66.5t85.5 -146.5q2 -12 3.5 -24.5t1.5 -24.5
q0 -32 -15 -48t-48 -16v1zM154 314h229q-6 46 -35.5 77.5t-79.5 31.5q-48 0 -78.5 -32t-35.5 -78v1zM238 763l118 -48l8 -4q11 -7 18.5 -16t8.5 -19q1 -2 1 -3.5v-2.5v-4v-4q-3 -24 -17.5 -44.5t-35.5 -20.5h-9.5t-5.5 1q-3 1 -8 3t-17 6l-112 45q-21 7 -31 21.5t-10 36.5
q0 4 0.5 8t1.5 8q5 17 19.5 31.5t32.5 14.5q8 0 17.5 -2.5t20.5 -7.5v1z" />
    <glyph glyph-name="eacute" unicode="&#xe9;" horiz-adv-x="537" 
d="M464 218h-307q8 -54 47 -79.5t89 -25.5q28 0 51.5 9t43.5 20t37 20t31 9q23 0 41 -19.5t18 -42.5q0 -40 -59 -74t-130 -44q-12 -1 -23.5 -2t-22.5 -1q-121 0 -195.5 78.5t-74.5 197.5q0 110 72 194.5t186 84.5q101 0 168.5 -66.5t85.5 -146.5q2 -12 3.5 -24.5t1.5 -24.5
q0 -32 -15 -48t-48 -16v1zM154 314h229q-6 46 -35.5 77.5t-79.5 31.5q-48 0 -78.5 -32t-35.5 -78v1zM182 715l118 48q11 4 20.5 6.5t17.5 2.5q18 0 32.5 -14.5t19.5 -31.5q1 -4 1.5 -8t0.5 -8q0 -22 -10 -36.5t-31 -22.5l-112 -43q-12 -5 -17 -7t-8 -3q-2 -1 -5.5 -1h-9.5
q-21 0 -35.5 20.5t-17.5 44.5v4v4v2.5t1 3.5q1 10 8.5 19t18.5 15l8 5v0z" />
    <glyph glyph-name="ecircumflex" unicode="&#xea;" horiz-adv-x="537" 
d="M464 218h-307q8 -54 47 -79.5t89 -25.5q28 0 51.5 9t43.5 20t37 20t31 9q23 0 41 -19.5t18 -42.5q0 -40 -59 -74t-130 -44q-12 -1 -23.5 -2t-22.5 -1q-121 0 -195.5 78.5t-74.5 197.5q0 110 72 194.5t186 84.5q101 0 168.5 -66.5t85.5 -146.5q2 -12 3.5 -24.5t1.5 -24.5
q0 -32 -15 -48t-48 -16v1zM154 314h229q-6 46 -35.5 77.5t-79.5 31.5q-48 0 -78.5 -32t-35.5 -78v1zM163 721l106 43l106 -43q22 -10 34 -24t12 -38t-18.5 -44t-42.5 -20q-7 0 -18.5 4t-23.5 10v0v0q-3 1 -5.5 2t-4.5 2l-39 18l-39 -17q-2 -2 -4.5 -3t-5.5 -2v0v0
q-12 -6 -23.5 -10t-18.5 -4q-24 0 -42.5 20t-18.5 44t12 38.5t34 22.5v1z" />
    <glyph glyph-name="edieresis" unicode="&#xeb;" horiz-adv-x="537" 
d="M464 218h-307q8 -54 47 -79.5t89 -25.5q28 0 51.5 9t43.5 20t37 20t31 9q23 0 41 -19.5t18 -42.5q0 -40 -59 -74t-130 -44q-12 -1 -23.5 -2t-22.5 -1q-121 0 -195.5 78.5t-74.5 197.5q0 110 72 194.5t186 84.5q101 0 168.5 -66.5t85.5 -146.5q2 -12 3.5 -24.5t1.5 -24.5
q0 -32 -15 -48t-48 -16v1zM154 314h229q-6 46 -35.5 77.5t-79.5 31.5q-48 0 -78.5 -32t-35.5 -78v1zM87 675q0 29 21 50t51 21t51 -21t21 -51t-21 -51t-51 -21t-51 21t-21 51v1zM307 675q0 29 21 50t51 21t51 -21t21 -51t-21 -51t-51 -21t-51 21t-21 51v1z" />
    <glyph glyph-name="igrave" unicode="&#xec;" horiz-adv-x="222" 
d="M39 74v384q0 35 20.5 57t51.5 22q32 0 52 -22t20 -58v-383q0 -37 -20 -58.5t-52 -21.5q-31 0 -51.5 21.5t-20.5 57.5v1zM80 763l118 -48l8 -4q11 -7 18.5 -16t8.5 -19q1 -2 1 -3.5v-2.5v-4v-4q-3 -24 -17.5 -44.5t-35.5 -20.5h-9.5t-5.5 1q-3 1 -8 3t-17 6l-112 45
q-21 7 -30.5 21.5t-9.5 36.5q0 4 0.5 8t1.5 8q5 17 19 31.5t32 14.5q8 0 17.5 -2.5t20.5 -7.5v1z" />
    <glyph glyph-name="iacute" unicode="&#xed;" horiz-adv-x="222" 
d="M39 74v384q0 35 20.5 57t51.5 22q32 0 52 -22t20 -58v-383q0 -37 -20 -58.5t-52 -21.5q-31 0 -51.5 21.5t-20.5 57.5v1zM24 715l118 48q11 4 20.5 6.5t17.5 2.5q18 0 32.5 -14.5t19.5 -31.5q1 -4 1.5 -8t0.5 -8q0 -22 -10 -36.5t-31 -22.5l-112 -43q-12 -5 -17 -7t-8 -3
q-2 -1 -5.5 -1h-9.5q-21 0 -35 20.5t-17 44.5v4v4v2.5t1 3.5q1 10 8 19t18 15l8 5v0z" />
    <glyph glyph-name="icircumflex" unicode="&#xee;" horiz-adv-x="222" 
d="M39 74v384q0 35 20.5 57t51.5 22q32 0 52 -22t20 -58v-383q0 -37 -20 -58.5t-52 -21.5q-31 0 -51.5 21.5t-20.5 57.5v1zM5 721l106 43l106 -43q22 -10 34 -24t12 -38t-18.5 -44t-42.5 -20q-7 0 -18.5 4t-23.5 10v0v0q-3 1 -5.5 2t-4.5 2l-39 18l-39 -17q-2 -2 -4.5 -3
t-5.5 -2v0v0q-12 -6 -23.5 -10t-18.5 -4q-23 0 -41.5 20t-18.5 44t12 38.5t33 22.5v1z" />
    <glyph glyph-name="idieresis" unicode="&#xef;" horiz-adv-x="222" 
d="M39 74v384q0 35 20.5 57t51.5 22q32 0 52 -22t20 -58v-383q0 -37 -20 -58.5t-52 -21.5q-31 0 -51.5 21.5t-20.5 57.5v1zM-71 675q1 29 22 50t50 21q30 0 51 -21t21 -51t-21 -51t-51 -21q-29 0 -50 21t-21 51zM149 675q0 29 21 50t51 21t51 -21t21 -51t-21 -51t-51 -21
t-51 21t-21 51v1z" />
    <glyph glyph-name="glyph233" unicode="&#xf0;" horiz-adv-x="556" 
d="M278 -12q-116 0 -187 82t-71 194v5.5v5.5q5 92 72 168.5t170 76.5h4h4q29 -1 57 -11t48 -32l2 3q-19 40 -48 74.5t-64 55.5l-66 -34q-22 -13 -37.5 -20.5t-29.5 -7.5h-3.5t-3.5 1q-10 2 -19 10.5t-9 24.5q0 17 10 26t22 16q2 0 3.5 1t3.5 2l50 27q-5 1 -11.5 3.5
t-12.5 5.5q-17 8 -31.5 19.5t-14.5 28.5q0 33 19 47.5t59 14.5q31 0 61 -12.5t57 -27.5q3 -2 6 -3.5t6 -3.5l80 44q13 6 20.5 8t13.5 2h0.5h1.5q14 0 24.5 -10.5t10.5 -27.5q0 -9 -3.5 -15.5t-11.5 -12.5q-5 -4 -11 -7.5t-14 -7.5l-52 -27q85 -80 119 -172.5t34 -213.5
q0 -130 -71 -215t-187 -85v0zM277 395q-50 -1 -80.5 -40t-32.5 -85v-3.5v-2.5v-8.5t1 -9.5q4 -47 31.5 -87t81.5 -40t81.5 40t31.5 87q1 5 1 9.5v8.5q-1 51 -30 90.5t-85 39.5v1z" />
    <glyph glyph-name="ntilde" unicode="&#xf1;" horiz-adv-x="556" 
d="M41 74v384q0 35 20.5 57t51.5 22q28 0 45 -14t21 -39q21 29 54.5 44t84.5 15q85 0 141 -51t56 -143v-275q0 -37 -20 -58.5t-52 -21.5q-31 0 -51.5 21.5t-20.5 57.5v252q0 49 -27.5 73.5t-66.5 24.5q-44 0 -68 -28.5t-24 -70.5v-250q0 -37 -20 -58.5t-52 -21.5
q-31 0 -51.5 21.5t-20.5 57.5v1zM162 605q-17 -1 -32 13.5t-18 32.5v2.5v2.5q0 41 28 64.5t67 23.5q17 0 33.5 -4t30.5 -8l27 -9t21 -4q8 0 17 4.5t19 10.5q5 2 10 4.5t10 4.5t11 3.5t11 1.5q23 0 35 -17.5t12 -38.5q0 -35 -27.5 -59t-60.5 -27q-2 -1 -4.5 -1h-5.5
q-10 0 -23 3l-26 6l-6 2t-5 1q-16 5 -30 9t-23 4q-7 0 -13 -2.5t-11 -5.5q-2 -1 -4 -2.5t-4 -2.5q-8 -5 -17 -9t-22 -4v1z" />
    <glyph glyph-name="ograve" unicode="&#xf2;" horiz-adv-x="556" 
d="M278 544q114 -1 186 -85.5t72 -194.5q0 -112 -71 -194t-187 -82t-187 82t-71 194q0 110 72 194.5t186 84.5v1zM278 412q-53 -1 -80.5 -40t-32.5 -86q0 -6 -0.5 -11.5t-0.5 -10.5v-8.5t1 -9.5q4 -47 31.5 -87t81.5 -40t81.5 40t31.5 87q1 5 1 9.5v8.5q0 5 -0.5 10.5
t-0.5 11.5q-5 47 -32.5 86t-80.5 39v1zM247 763l118 -48l8 -4q11 -7 18.5 -16t8.5 -19q1 -2 1 -3.5v-2.5v-4v-4q-3 -24 -17.5 -44.5t-35.5 -20.5h-9.5t-5.5 1q-3 1 -8 3t-17 6l-112 45q-21 7 -31 21.5t-10 36.5q0 4 0.5 8t1.5 8q5 17 19.5 31.5t32.5 14.5q8 0 17.5 -2.5
t20.5 -7.5v1z" />
    <glyph glyph-name="oacute" unicode="&#xf3;" horiz-adv-x="556" 
d="M278 544q114 -1 186 -85.5t72 -194.5q0 -112 -71 -194t-187 -82t-187 82t-71 194q0 110 72 194.5t186 84.5v1zM278 412q-53 -1 -80.5 -40t-32.5 -86q0 -6 -0.5 -11.5t-0.5 -10.5v-8.5t1 -9.5q4 -47 31.5 -87t81.5 -40t81.5 40t31.5 87q1 5 1 9.5v8.5q0 5 -0.5 10.5
t-0.5 11.5q-5 47 -32.5 86t-80.5 39v1zM191 715l118 48q11 4 20.5 6.5t17.5 2.5q18 0 32.5 -14.5t19.5 -31.5q1 -4 1.5 -8t0.5 -8q0 -22 -10 -36.5t-31 -22.5l-112 -43q-12 -5 -17 -7t-8 -3q-2 -1 -5.5 -1h-9.5q-21 0 -35.5 20.5t-17.5 44.5v4v4v2.5t1 3.5q1 10 8.5 19
t18.5 15l8 5v0z" />
    <glyph glyph-name="ocircumflex" unicode="&#xf4;" horiz-adv-x="556" 
d="M278 544q114 -1 186 -85.5t72 -194.5q0 -112 -71 -194t-187 -82t-187 82t-71 194q0 110 72 194.5t186 84.5v1zM278 412q-53 -1 -80.5 -40t-32.5 -86q0 -6 -0.5 -11.5t-0.5 -10.5v-8.5t1 -9.5q4 -47 31.5 -87t81.5 -40t81.5 40t31.5 87q1 5 1 9.5v8.5q0 5 -0.5 10.5
t-0.5 11.5q-5 47 -32.5 86t-80.5 39v1zM172 721l106 43l106 -43q22 -10 34 -24t12 -38t-18.5 -44t-42.5 -20q-7 0 -18.5 4t-23.5 10v0v0q-3 1 -5.5 2t-4.5 2l-39 18l-39 -17q-2 -2 -4.5 -3t-5.5 -2v0v0q-12 -6 -23.5 -10t-18.5 -4q-24 0 -42.5 20t-18.5 44t12 38.5t34 22.5
v1z" />
    <glyph glyph-name="otilde" unicode="&#xf5;" horiz-adv-x="556" 
d="M278 544q114 -1 186 -85.5t72 -194.5q0 -112 -71 -194t-187 -82t-187 82t-71 194q0 110 72 194.5t186 84.5v1zM278 412q-53 -1 -80.5 -40t-32.5 -86q0 -6 -0.5 -11.5t-0.5 -10.5v-8.5t1 -9.5q4 -47 31.5 -87t81.5 -40t81.5 40t31.5 87q1 5 1 9.5v8.5q0 5 -0.5 10.5
t-0.5 11.5q-5 47 -32.5 86t-80.5 39v1zM162 605q-17 -1 -32 13.5t-18 32.5v2.5v2.5q0 41 28 64.5t67 23.5q17 0 33.5 -4t30.5 -8l27 -9t21 -4q8 0 17 4.5t19 10.5q5 2 10 4.5t10 4.5t11 3.5t11 1.5q23 0 35 -17.5t12 -38.5q0 -35 -27.5 -59t-60.5 -27q-2 -1 -4.5 -1h-5.5
q-10 0 -23 3l-26 6l-6 2t-5 1q-16 5 -30 9t-23 4q-7 0 -13 -2.5t-11 -5.5q-2 -1 -4 -2.5t-4 -2.5q-8 -5 -17 -9t-22 -4v1z" />
    <glyph glyph-name="odieresis" unicode="&#xf6;" horiz-adv-x="556" 
d="M278 544q114 -1 186 -85.5t72 -194.5q0 -112 -71 -194t-187 -82t-187 82t-71 194q0 110 72 194.5t186 84.5v1zM278 412q-53 -1 -80.5 -40t-32.5 -86q0 -6 -0.5 -11.5t-0.5 -10.5v-8.5t1 -9.5q4 -47 31.5 -87t81.5 -40t81.5 40t31.5 87q1 5 1 9.5v8.5q0 5 -0.5 10.5
t-0.5 11.5q-5 47 -32.5 86t-80.5 39v1zM96 675q0 29 21 50t51 21t51 -21t21 -51t-21 -51t-51 -21t-51 21t-21 51v1zM316 675q0 29 21 50t51 21t51 -21t21 -51t-21 -51t-51 -21t-51 21t-21 51v1z" />
    <glyph glyph-name="Aacute" unicode="&#xf7;" 
 />
    <glyph glyph-name="OE" unicode="&#xf8;" horiz-adv-x="556" 
d="M15 46l53 55q-23 34 -35.5 75.5t-12.5 87.5q0 110 72 194.5t186 84.5q47 0 87 -15.5t72 -43.5l46 49q7 7 13.5 10.5t13.5 3.5q17 0 29 -12t12 -29q0 -9 -2.5 -15.5t-7.5 -11.5l-52 -53q23 -36 35 -77t12 -85q0 -112 -71 -194t-187 -82q-46 0 -86 14t-71 39l-50 -51
q-4 -4 -9 -7t-11 -4q-1 -1 -2.5 -1h-2.5q-17 0 -29 12t-12 28q0 9 3 16t7 11v1zM385 318l-169 -176q12 -11 27.5 -17t34.5 -6q54 0 81.5 40t31.5 87q1 5 1 9.5v8.5q0 13 -1.5 26.5t-5.5 26.5v1zM173 210l171 178q-12 10 -29 16.5t-37 6.5q-53 0 -80.5 -39t-32.5 -86
q0 -6 -0.5 -11.5t-0.5 -10.5q0 -14 2.5 -28t6.5 -27v1z" />
    <glyph glyph-name="ugrave" unicode="&#xf9;" horiz-adv-x="556" 
d="M41 198v260q0 35 20.5 57t51.5 22q32 0 52 -22t20 -58v-256q0 -46 28.5 -70t64.5 -24t64.5 24t28.5 69v258q0 35 20.5 57t51.5 22q32 0 52 -22t20 -58v-259q0 -97 -61.5 -153.5t-175.5 -56.5t-175.5 56.5t-61.5 152.5v1zM247 763l118 -48l8 -4q11 -7 18.5 -16t8.5 -19
q1 -2 1 -3.5v-2.5v-4v-4q-3 -24 -17.5 -44.5t-35.5 -20.5h-9.5t-5.5 1q-3 1 -8 3t-17 6l-112 45q-21 7 -31 21.5t-10 36.5q0 4 0.5 8t1.5 8q5 17 19.5 31.5t32.5 14.5q8 0 17.5 -2.5t20.5 -7.5v1z" />
    <glyph glyph-name="uacute" unicode="&#xfa;" horiz-adv-x="556" 
d="M41 198v260q0 35 20.5 57t51.5 22q32 0 52 -22t20 -58v-256q0 -46 28.5 -70t64.5 -24t64.5 24t28.5 69v258q0 35 20.5 57t51.5 22q32 0 52 -22t20 -58v-259q0 -97 -61.5 -153.5t-175.5 -56.5t-175.5 56.5t-61.5 152.5v1zM191 715l118 48q11 4 20.5 6.5t17.5 2.5
q18 0 32.5 -14.5t19.5 -31.5q1 -4 1.5 -8t0.5 -8q0 -22 -10 -36.5t-31 -22.5l-112 -43q-12 -5 -17 -7t-8 -3q-2 -1 -5.5 -1h-9.5q-21 0 -35.5 20.5t-17.5 44.5v4v4v2.5t1 3.5q1 10 8.5 19t18.5 15l8 5v0z" />
    <glyph glyph-name="ucircumflex" unicode="&#xfb;" horiz-adv-x="556" 
d="M41 198v260q0 35 20.5 57t51.5 22q32 0 52 -22t20 -58v-256q0 -46 28.5 -70t64.5 -24t64.5 24t28.5 69v258q0 35 20.5 57t51.5 22q32 0 52 -22t20 -58v-259q0 -97 -61.5 -153.5t-175.5 -56.5t-175.5 56.5t-61.5 152.5v1zM172 721l106 43l106 -43q22 -10 34 -24t12 -38
t-18.5 -44t-42.5 -20q-7 0 -18.5 4t-23.5 10v0v0q-3 1 -5.5 2t-4.5 2l-39 18l-39 -17q-2 -2 -4.5 -3t-5.5 -2v0v0q-12 -6 -23.5 -10t-18.5 -4q-24 0 -42.5 20t-18.5 44t12 38.5t34 22.5v1z" />
    <glyph glyph-name="udieresis" unicode="&#xfc;" horiz-adv-x="556" 
d="M41 198v260q0 35 20.5 57t51.5 22q32 0 52 -22t20 -58v-256q0 -46 28.5 -70t64.5 -24t64.5 24t28.5 69v258q0 35 20.5 57t51.5 22q32 0 52 -22t20 -58v-259q0 -97 -61.5 -153.5t-175.5 -56.5t-175.5 56.5t-61.5 152.5v1zM96 675q0 29 21 50t51 21t51 -21t21 -51t-21 -51
t-51 -21t-51 21t-21 51v1zM316 675q0 29 21 50t51 21t51 -21t21 -51t-21 -51t-51 -21t-51 21t-21 51v1z" />
    <glyph glyph-name="yacute" unicode="&#xfd;" 
 />
    <glyph glyph-name="glyph237" unicode="&#xfe;" horiz-adv-x="574" 
d="M41 -138v828q0 35 20.5 57t51.5 22q32 0 52 -22t20 -58v-211h2q15 26 43.5 42t58.5 21q7 1 14 1.5t14 0.5q109 0 173 -84.5t64 -186.5q0 -10 -0.5 -20.5t-2.5 -20.5q-11 -92 -70 -167.5t-159 -75.5q-37 0 -72.5 12t-64.5 37v-175q0 -36 -20 -58t-52 -22q-31 0 -51.5 22
t-20.5 58v0zM185 262v-3.5v-3.5q2 -51 29.5 -93.5t83.5 -42.5q49 0 76.5 38t33.5 84q1 6 1.5 12.5t0.5 12.5t-0.5 12.5t-1.5 12.5q-6 45 -33.5 82.5t-76.5 37.5q-53 0 -80 -39.5t-32 -86.5q0 -6 -0.5 -12t-0.5 -12v1z" />
    <glyph glyph-name="Egrave" unicode="&#xff;" horiz-adv-x="481" 
d="M164 42l-159 397q-3 7 -4.5 16t-1.5 20q0 22 15.5 38t35.5 22q4 1 8 1.5t8 0.5q26 0 44.5 -13.5t27.5 -37.5l99 -270l106 271q9 23 27.5 36.5t44.5 13.5q4 0 8 -0.5t8 -1.5q20 -6 36 -22t16 -38q0 -11 -1.5 -20t-5.5 -17l-241 -599q-9 -23 -25.5 -40t-42.5 -17
q-37 0 -56 19.5t-19 42.5q0 3 0.5 7t0.5 7q1 7 3.5 14t4.5 14l63 156v0zM59 675q0 29 21 50t51 21t51 -21t21 -51t-21 -51t-51 -21t-51 21t-21 51v1zM279 675q0 29 21 50t51 21t51 -21t21 -51t-21 -51t-51 -21t-51 21t-21 51v1z" />
    <glyph glyph-name="Abreve" unicode="&#x102;" 
 />
    <glyph glyph-name="abreve" unicode="&#x103;" 
 />
    <glyph glyph-name="Aogonek" unicode="&#x104;" 
 />
    <glyph glyph-name="aogonek" unicode="&#x105;" 
 />
    <glyph glyph-name="Cacute" unicode="&#x106;" 
 />
    <glyph glyph-name="cacute" unicode="&#x107;" 
 />
    <glyph glyph-name="Ccaron" unicode="&#x10c;" 
 />
    <glyph glyph-name="ccaron" unicode="&#x10d;" 
 />
    <glyph glyph-name="Dcaron" unicode="&#x10e;" 
 />
    <glyph glyph-name="dcaron" unicode="&#x10f;" 
 />
    <glyph glyph-name="Dcroat" unicode="&#x110;" 
 />
    <glyph glyph-name="dcroat" unicode="&#x111;" 
 />
    <glyph glyph-name="Eogonek" unicode="&#x118;" 
 />
    <glyph glyph-name="eogonek" unicode="&#x119;" 
 />
    <glyph glyph-name="Ecaron" unicode="&#x11a;" 
 />
    <glyph glyph-name="ecaron" unicode="&#x11b;" 
 />
    <glyph glyph-name="Gbreve" unicode="&#x11e;" 
 />
    <glyph glyph-name="gbreve" unicode="&#x11f;" 
 />
    <glyph glyph-name="Idotaccent" unicode="&#x130;" 
 />
    <glyph glyph-name="thorn" unicode="&#x131;" horiz-adv-x="222" 
d="M39 74v384q0 35 20.5 57t51.5 22q32 0 52 -22t20 -58v-383q0 -37 -20 -58.5t-52 -21.5q-31 0 -51.5 21.5t-20.5 57.5v1z" />
    <glyph glyph-name="Lacute" unicode="&#x139;" 
 />
    <glyph glyph-name="lacute" unicode="&#x13a;" 
 />
    <glyph glyph-name="Lcaron" unicode="&#x13d;" 
 />
    <glyph glyph-name="lcaron" unicode="&#x13e;" 
 />
    <glyph glyph-name="Ldot" unicode="&#x13f;" 
 />
    <glyph glyph-name="ldot" unicode="&#x140;" 
 />
    <glyph glyph-name="glyph225" unicode="&#x141;" horiz-adv-x="426" 
d="M45 82v158l-39 -30q-9 -8 -16.5 -9.5t-13.5 -1.5q-20 0 -32 14t-12 38q0 11 4.5 19.5t11.5 16.5q7 7 16.5 14t20.5 16l60 47v276q0 37 21.5 57t53.5 20t53.5 -20t21.5 -58v-161l110 82q13 8 23 10t19 2q3 0 6 -0.5t5 -1.5q13 -4 23 -15.5t10 -29.5t-13 -32t-30 -26
q-2 -2 -4 -3.5t-4 -2.5l-145 -105v-218h178q34 -1 51 -20t20 -41q1 -3 1 -5.5v-4.5v-0.5v-0.5v-0.5v-0.5q-1 -25 -20 -45t-52 -20h-250q-37 0 -57.5 22t-20.5 59v1z" />
    <glyph glyph-name="glyph226" unicode="&#x142;" horiz-adv-x="222" 
d="M39 74v186l-5 -5q-10 -11 -21.5 -18.5t-24.5 -7.5q-20 0 -31.5 14.5t-11.5 33.5q0 7 2 13t6 12q2 4 5.5 8t7.5 8l73 75v297q0 35 20.5 57t51.5 22q32 0 52 -22t20 -58v-157l5 5q11 10 22.5 18t27.5 8q18 0 29 -13t11 -32q0 -12 -3 -20.5t-9 -16.5l-4.5 -4.5l-4.5 -4.5
l-74 -73v-325q0 -37 -20 -58.5t-52 -21.5q-31 0 -51.5 21.5t-20.5 57.5v1z" />
    <glyph glyph-name="Nacute" unicode="&#x143;" 
 />
    <glyph glyph-name="nacute" unicode="&#x144;" 
 />
    <glyph glyph-name="Ncaron" unicode="&#x147;" 
 />
    <glyph glyph-name="ncaron" unicode="&#x148;" 
 />
    <glyph glyph-name="Ohungarumlaut" unicode="&#x150;" 
 />
    <glyph glyph-name="ohungarumlaut" unicode="&#x151;" 
 />
    <glyph glyph-name="fi" unicode="&#x152;" horiz-adv-x="963" 
d="M693 574v-146h166q37 -1 55 -22.5t18 -47.5v-1.5v-1.5q-1 -25 -19.5 -45.5t-53.5 -20.5l-166 1v-152h187q36 -1 53.5 -22.5t17.5 -47.5v-1.5v-1.5q-1 -25 -19 -45t-52 -20h-278q-34 0 -39.5 17t-5.5 39l-2 1q-24 -33 -61 -47.5t-76 -18.5q-15 -2 -29 -2.5t-28 -0.5
q-152 0 -248 106t-96 261q0 156 95.5 262t248.5 106q10 0 19.5 -0.5t19.5 -1.5q42 -5 83 -23t73 -50l2 3q0 39 14.5 49.5t57.5 10.5l241 1q36 -1 53.5 -22.5t17.5 -47.5v-1.5v-1.5q-1 -25 -19 -45.5t-52 -20.5l-178 1v0zM173 356q0 -92 46.5 -161.5t141.5 -69.5t141.5 69.5
t46.5 160.5t-47 160.5t-141 69.5t-141 -69.5t-47 -160.5v1z" />
    <glyph glyph-name="fl" unicode="&#x153;" horiz-adv-x="907" 
d="M834 218h-307q8 -54 47.5 -79.5t89.5 -25.5q27 0 50.5 9t43.5 20t37 20t31 9q23 0 41 -19.5t18 -42.5q0 -40 -59 -74t-130 -44q-12 -1 -23.5 -2t-22.5 -1q-63 0 -111.5 22.5t-79.5 59.5q-30 -37 -75.5 -59.5t-105.5 -22.5q-116 0 -187 82t-71 194q0 110 72 194.5
t186 84.5q60 0 106 -23.5t80 -57.5q26 33 70 57t102 24q104 0 182.5 -78.5t78.5 -183.5q0 -32 -15 -48t-48 -16v1zM164 265v-9.5t1 -9.5q4 -47 31.5 -87t81.5 -40t81.5 40t31.5 87q1 5 1 9.5v8.5q0 5 -0.5 10.5t-0.5 11.5q-5 47 -32.5 86t-80.5 39t-80.5 -39t-32.5 -86
q0 -6 -0.5 -11.5t-0.5 -10.5v1zM524 314h229q-6 46 -35 77.5t-79 31.5q-48 0 -78.5 -32t-36.5 -78v1z" />
    <glyph glyph-name="Racute" unicode="&#x154;" 
 />
    <glyph glyph-name="racute" unicode="&#x155;" 
 />
    <glyph glyph-name="Rcaron" unicode="&#x158;" 
 />
    <glyph glyph-name="rcaron" unicode="&#x159;" 
 />
    <glyph glyph-name="Sacute" unicode="&#x15a;" 
 />
    <glyph glyph-name="sacute" unicode="&#x15b;" 
 />
    <glyph glyph-name="Scedilla" unicode="&#x15e;" 
 />
    <glyph glyph-name="scedilla" unicode="&#x15f;" 
 />
    <glyph glyph-name="glyph227" unicode="&#x160;" horiz-adv-x="537" 
d="M270 724q16 -1 39 -3.5t48 -8.5q41 -10 75 -31t34 -58q0 -29 -18 -51.5t-49 -22.5q-7 0 -14.5 1t-14.5 3q-7 3 -14.5 5.5t-15.5 5.5q-16 6 -33.5 10.5t-40.5 4.5q-32 0 -57 -16.5t-25 -48.5q0 -26 26 -40.5t65 -25.5q18 -6 37 -11.5t39 -11.5q63 -22 115 -65.5t52 -140.5
q0 -107 -76 -169t-180 -62q-20 0 -47 2t-55 7q-53 9 -97 32.5t-44 69.5q0 29 18 50t49 21q18 0 37 -6t40 -13q21 -8 44 -14t47 -6q50 0 76 24.5t26 61.5q0 34 -32 50.5t-78 29.5l-28 8t-29 9q-63 19 -115 57t-52 125q0 105 74 166t174 61v1zM269 754l-106 43q-22 7 -34 21.5
t-12 38.5t18.5 44t42.5 20q7 0 18.5 -4t23.5 -10v0v0q3 -1 5.5 -2t4.5 -2l39 -16l39 17q2 0 4.5 1t5.5 2v0v0q12 6 23.5 10t18.5 4q24 0 42.5 -20t18.5 -44t-12 -38t-34 -23l-106 -42v0z" />
    <glyph glyph-name="glyph228" unicode="&#x161;" horiz-adv-x="426" 
d="M403 440q0 -26 -16.5 -45.5t-42.5 -19.5q-10 0 -25 6.5t-32 14.5q-10 4 -20 8.5t-20 7.5q-8 2 -16 3.5t-16 1.5q-19 0 -34 -9.5t-15 -30.5q0 -15 16 -26t40 -21q16 -6 33.5 -12.5t35.5 -14.5q47 -20 86 -52.5t39 -94.5q0 -72 -56 -120t-149 -48q-15 0 -31.5 2t-32.5 6
q-52 11 -94.5 38t-42.5 64q0 5 1.5 12t5.5 13q7 15 21 27t34 12q18 0 32 -5.5t27 -13.5q3 -1 5.5 -2.5t5.5 -2.5q16 -10 35 -17.5t44 -7.5q33 0 45 10.5t12 30.5q0 15 -15.5 25.5t-39.5 20.5q-15 6 -33.5 13t-36.5 14q-47 20 -86 53t-39 95q0 75 55 121.5t140 46.5
q14 0 29 -1.5t31 -5.5q45 -9 82.5 -33.5t37.5 -63.5v1zM213 592l-106 43q-22 7 -34 21.5t-12 38.5t18.5 44t42.5 20q7 0 18.5 -4t23.5 -10v0v0q3 -1 5.5 -2t4.5 -2l39 -16l39 17q2 0 4.5 1t5.5 2v0v0q12 6 23.5 10t18.5 4q24 0 42.5 -20t18.5 -44t-12 -38t-34 -23l-106 -42
v0z" />
    <glyph glyph-name="Tcommaaccent" unicode="&#x162;" 
 />
    <glyph glyph-name="tcommaaccent" unicode="&#x163;" 
 />
    <glyph glyph-name="Tcaron" unicode="&#x164;" 
 />
    <glyph glyph-name="tcaron" unicode="&#x165;" 
 />
    <glyph glyph-name="Uring" unicode="&#x16e;" 
 />
    <glyph glyph-name="uring" unicode="&#x16f;" 
 />
    <glyph glyph-name="Uhungarumlaut" unicode="&#x170;" 
 />
    <glyph glyph-name="uhungarumlaut" unicode="&#x171;" 
 />
    <glyph glyph-name="Iacute" unicode="&#x178;" horiz-adv-x="536" 
d="M193 67v267l-189 266q-6 9 -9.5 20.5t-3.5 23.5q0 30 20 51.5t51 21.5q20 0 36 -8t26 -22l144 -208l144 209q10 13 26.5 21t35.5 8q32 0 52 -21.5t20 -51.5q0 -12 -3.5 -23.5t-10.5 -21.5l-189 -265v-267q0 -29 -17.5 -51t-57.5 -22t-57.5 22t-17.5 50v1zM86 837
q0 29 21 50t51 21t51 -21t21 -51t-21 -51t-51 -21t-51 21t-21 51v1zM306 837q0 29 21 50t51 21t51 -21t21 -51t-21 -51t-51 -21t-51 21t-21 51v1z" />
    <glyph glyph-name="Zacute" unicode="&#x179;" 
 />
    <glyph glyph-name="zacute" unicode="&#x17a;" 
 />
    <glyph glyph-name="Zdotaccent" unicode="&#x17b;" 
 />
    <glyph glyph-name="zdotaccent" unicode="&#x17c;" 
 />
    <glyph glyph-name="Zcaron" unicode="&#x17d;" 
 />
    <glyph glyph-name="zcaron" unicode="&#x17e;" 
 />
    <glyph glyph-name="quotedblright" unicode="&#x192;" horiz-adv-x="574" 
d="M221 423l29 151q12 71 52 110t113 39q5 0 10.5 -0.5t10.5 -0.5q29 -3 53 -17.5t24 -49.5q0 -36 -23 -47t-55 -11q-22 0 -31.5 -15.5t-14.5 -38.5l-22 -120h35q33 -1 51.5 -17t18.5 -46q0 -37 -24.5 -50.5t-70.5 -13.5l-33 1l-63 -346q-13 -73 -50.5 -121t-119.5 -48h-1.5
h-1.5q-35 0 -64.5 12t-29.5 53q0 31 15 43.5t32 15.5q9 1 17 1.5t15 0.5q15 0 24 10.5t14 23.5q3 8 4.5 15.5l2.5 12.5l61 327h-25q-35 -1 -51.5 17t-16.5 43q0 33 21 49t54 16l40 1v0z" />
    <glyph glyph-name="uni02BA" unicode="&#x2ba;" horiz-adv-x="222" 
d="M-115 715l118 48q11 4 20.5 6.5t17.5 2.5q18 0 32.5 -14.5t19.5 -31.5q1 -4 1.5 -8t0.5 -8q0 -22 -10 -36.5t-31 -22.5l-112 -43q-11 -5 -16 -7t-8 -3q-2 -1 -5.5 -1h-9.5q-21 0 -35.5 20.5t-17.5 44.5v4v4v2.5t1 3.5q1 10 8.5 19t18.5 15l7 5v0zM163 715l118 48
q11 4 20.5 6.5t17.5 2.5q18 0 32.5 -14.5t19.5 -31.5q1 -4 1.5 -8t0.5 -8q0 -22 -10 -36.5t-31 -22.5l-112 -43q-12 -5 -17 -7t-8 -3q-2 -1 -5.5 -1h-9.5q-21 0 -35.5 20.5t-17.5 44.5v4v4v2.5t1 3.5q1 10 8.5 19t18.5 15l8 5v0z" />
    <glyph glyph-name="arrowright" unicode="&#x2c6;" horiz-adv-x="222" 
d="M-5 605q-16 -1 -31 13.5t-18 32.5v2.5v2.5q0 41 27.5 64.5t66.5 23.5q17 0 33.5 -4t30.5 -8l27 -9t21 -4q8 0 17 4.5t19 10.5q5 2 10 4.5t10 4.5t11 3.5t11 1.5q23 0 35 -17.5t12 -38.5q0 -35 -27.5 -59t-60.5 -27q-2 -1 -4.5 -1h-5.5q-10 0 -23 3l-26 6l-6 2t-5 1
q-16 5 -30 9t-23 4q-7 0 -13 -2.5t-11 -5.5q-2 -1 -4 -2.5t-4 -2.5q-8 -5 -17 -9t-21 -4z" />
    <glyph glyph-name="glyph224" unicode="&#x2c7;" horiz-adv-x="222" 
d="M111 592l-106 43q-21 7 -33 21.5t-12 38.5t18.5 44t41.5 20q7 0 18.5 -4t23.5 -10v0v0q3 -1 5.5 -2t4.5 -2l39 -16l39 17q2 0 4.5 1t5.5 2v0v0q12 6 23.5 10t18.5 4q24 0 42.5 -20t18.5 -44t-12 -38t-34 -23l-106 -42v0z" />
    <glyph glyph-name="house" unicode="&#x2c9;" horiz-adv-x="222" 
d="M18 730h186q28 -1 46.5 -16.5t18.5 -44.5t-18 -44.5t-47 -15.5l-186 1q-28 -1 -46 14.5t-18 44.5t18.5 44.5t45.5 15.5v1z" />
    <glyph glyph-name="endash" unicode="&#x2d8;" horiz-adv-x="222" 
d="M-44 701q1 1 1 3.5v4.5q2 19 12.5 35t31.5 16q23 0 34.5 -10.5t20.5 -23.5t20.5 -23.5t34.5 -10.5q19 0 29 9t19 21q1 1 1.5 2t1.5 2q9 13 22 23.5t37 10.5q16 0 27.5 -14t15.5 -31q1 -3 1.5 -7t0.5 -8q0 -39 -31.5 -63t-69.5 -34q-14 -3 -28 -5t-26 -2t-25 1.5t-27 4.5
q-39 9 -70.5 32.5t-31.5 65.5z" />
    <glyph glyph-name="sfthyphen" unicode="&#x2d9;" horiz-adv-x="222" 
d="M39 675q0 29 21 50t51 21t51 -21t21 -51t-21 -51t-51 -21t-51 21t-21 51v1z" />
    <glyph glyph-name="filledbox" unicode="&#x2da;" horiz-adv-x="222" 
d="M12 678q0 40 29 69t70 29t70 -29t29 -70t-29 -70t-70 -29t-70 29t-29 70v1zM66 678q0 -20 13 -33t32 -13t32 13t13 32t-13 32t-32 13t-32 -13t-13 -32v1z" />
    <glyph glyph-name="glyph223" unicode="&#x2db;" horiz-adv-x="222" 
d="M122 0h69q-6 -3 -12 -7t-13 -9q-18 -15 -34.5 -36t-21.5 -43q-2 -4 -2.5 -8.5t-0.5 -9.5q0 -18 9 -28.5t26 -10.5q6 0 10.5 1t9.5 2q4 2 8.5 3t10.5 1q10 0 15.5 -6t5.5 -16q0 -23 -30.5 -37t-68.5 -14q-40 0 -66 22.5t-26 61.5q0 34 23 64t51 49q10 7 19.5 12.5
t17.5 8.5v0z" />
    <glyph glyph-name="onehalf" unicode="&#x2dc;" horiz-adv-x="222" 
d="M5 721l106 43l106 -43q22 -10 34 -24t12 -38t-18.5 -44t-42.5 -20q-7 0 -18.5 4t-23.5 10v0v0q-3 1 -5.5 2t-4.5 2l-39 18l-39 -17q-2 -2 -4.5 -3t-5.5 -2v0v0q-12 -6 -23.5 -10t-18.5 -4q-23 0 -41.5 20t-18.5 44t12 38.5t33 22.5v1z" />
    <glyph glyph-name="Gamma" unicode="&#x393;" 
 />
    <glyph glyph-name="Theta" unicode="&#x398;" 
 />
    <glyph glyph-name="exclamdown" unicode="&#x3a3;" 
 />
    <glyph glyph-name="Phi" unicode="&#x3a6;" 
 />
    <glyph glyph-name="Atilde" unicode="&#x3a9;" 
 />
    <glyph glyph-name="alpha" unicode="&#x3b1;" 
 />
    <glyph glyph-name="delta" unicode="&#x3b4;" 
 />
    <glyph glyph-name="epsilon" unicode="&#x3b5;" 
 />
    <glyph glyph-name="guillemotleft" unicode="&#x3c0;" 
 />
    <glyph glyph-name="sigma" unicode="&#x3c3;" 
 />
    <glyph glyph-name="tau" unicode="&#x3c4;" 
 />
    <glyph glyph-name="phi" unicode="&#x3c6;" 
 />
    <glyph glyph-name="glyph259" unicode="&#x2013;" horiz-adv-x="500" 
d="M60 350h380q28 -1 44 -17.5t16 -43.5t-16 -43.5t-44 -16.5l-380 1q-28 -1 -44 15.5t-16 43.5t16 43.5t44 16.5v1z" />
    <glyph glyph-name="periodcentered" unicode="&#x2014;" horiz-adv-x="1000" 
d="M0 350h1000q28 -1 44 -17.5t16 -43.5t-16 -43.5t-44 -16.5l-1000 1q-27 -1 -43 15.5t-16 43.5t16 43.5t43 16.5v1z" />
    <glyph glyph-name="underscoredbl" unicode="&#x2017;" 
 />
    <glyph glyph-name="Acircumflex" unicode="&#x2018;" horiz-adv-x="240" 
d="M218 618l-84 -150q-5 -11 -13.5 -18t-17.5 -11q-7 -3 -14 -4.5t-12 -1.5q-27 0 -47.5 19.5t-20.5 46.5q0 11 4 20.5t8 19.5l83 151q5 9 13.5 15.5t17.5 10.5q8 4 15 5.5t12 1.5q27 0 48 -19.5t21 -46.5q0 -9 -3.5 -18t-7.5 -17q0 -1 -0.5 -2.5t-1.5 -2.5v1z" />
    <glyph glyph-name="Ecircumflex" unicode="&#x2019;" horiz-adv-x="240" 
d="M218 618l-84 -150q-5 -11 -13.5 -18t-17.5 -11q-7 -3 -14 -4.5t-12 -1.5q-27 0 -47.5 19.5t-20.5 46.5q0 11 4 20.5t8 19.5l83 151q5 9 13.5 15.5t17.5 10.5q8 4 15 5.5t12 1.5q27 0 48 -19.5t21 -46.5q0 -9 -3.5 -18t-7.5 -17q0 -1 -0.5 -2.5t-1.5 -2.5v1z" />
    <glyph glyph-name="Ugrave" unicode="&#x201a;" 
 />
    <glyph glyph-name="quotedblbase" unicode="&#x201c;" horiz-adv-x="444" 
d="M218 618l-84 -150q-5 -11 -13.5 -18t-17.5 -11q-7 -3 -14 -4.5t-12 -1.5q-27 0 -47.5 19.5t-20.5 46.5q0 11 4 20.5t8 19.5l83 151q5 9 13.5 15.5t17.5 10.5q8 4 15 5.5t12 1.5q27 0 48 -19.5t21 -46.5q0 -9 -3.5 -18t-7.5 -17q0 -1 -0.5 -2.5t-1.5 -2.5v1zM422 618
l-84 -150q-5 -11 -13.5 -18t-17.5 -11q-7 -3 -14 -4.5t-12 -1.5q-27 0 -47.5 19.5t-20.5 46.5q0 11 4 20.5t8 19.5l83 151q5 9 13.5 15.5t17.5 10.5q8 4 15 5.5t12 1.5q27 0 48 -19.5t21 -46.5q0 -9 -3.5 -18t-7.5 -17q0 -1 -0.5 -2.5t-1.5 -2.5v1z" />
    <glyph glyph-name="perthousand" unicode="&#x201d;" horiz-adv-x="444" 
d="M218 618l-84 -150q-5 -11 -13.5 -18t-17.5 -11q-7 -3 -14 -4.5t-12 -1.5q-27 0 -47.5 19.5t-20.5 46.5q0 11 4 20.5t8 19.5l83 151q5 9 13.5 15.5t17.5 10.5q8 4 15 5.5t12 1.5q27 0 48 -19.5t21 -46.5q0 -9 -3.5 -18t-7.5 -17q0 -1 -0.5 -2.5t-1.5 -2.5v1zM422 618
l-84 -150q-5 -11 -13.5 -18t-17.5 -11q-7 -3 -14 -4.5t-12 -1.5q-27 0 -47.5 19.5t-20.5 46.5q0 11 4 20.5t8 19.5l83 151q5 9 13.5 15.5t17.5 10.5q8 4 15 5.5t12 1.5q27 0 48 -19.5t21 -46.5q0 -9 -3.5 -18t-7.5 -17q0 -1 -0.5 -2.5t-1.5 -2.5v1z" />
    <glyph glyph-name="dotlessi" unicode="&#x201e;" horiz-adv-x="444" 
d="M218 50l-84 -150q-5 -10 -13.5 -17t-17.5 -11q-7 -3 -14 -4.5t-12 -1.5q-27 0 -47.5 19.5t-20.5 46.5q0 10 4 20l8 20l83 150q5 9 13.5 15.5t17.5 10.5q8 4 15 5.5t12 1.5q27 0 48 -19.5t21 -46.5q0 -9 -3.5 -18t-7.5 -17q0 -1 -0.5 -2.5t-1.5 -2.5v1zM422 50l-84 -150
q-5 -10 -13.5 -17t-17.5 -11q-7 -3 -14 -4.5t-12 -1.5q-27 0 -47.5 19.5t-20.5 46.5q0 10 4 20l8 20l83 150q5 9 13.5 15.5t17.5 10.5q8 4 15 5.5t12 1.5q27 0 48 -19.5t21 -46.5q0 -9 -3.5 -18t-7.5 -17q0 -1 -0.5 -2.5t-1.5 -2.5v1z" />
    <glyph glyph-name="dagger" unicode="&#x2020;" horiz-adv-x="630" 
d="M246 -149v525h-164q-25 -1 -41 15.5t-16 46.5t16 46.5t41 16.5l164 1v153q0 32 19 50t50 18q32 0 50.5 -18t18.5 -51v-152h164q26 -1 41.5 -17.5t15.5 -46.5t-15.5 -46.5t-41.5 -16.5l-164 1v-525q0 -33 -18.5 -51t-50.5 -18q-31 0 -50 18t-19 51v0z" />
    <glyph glyph-name="Uacute" unicode="&#x2021;" horiz-adv-x="630" 
d="M246 -149v155h-164q-25 -1 -41 15.5t-16 46.5t16 46.5t41 16.5l164 1v244h-164q-25 -1 -41 15.5t-16 46.5t16 46.5t41 16.5l164 1v153q0 32 19 50t50 18q32 0 50.5 -18t18.5 -51v-152h164q26 -1 41.5 -17.5t15.5 -46.5t-15.5 -46.5t-41.5 -16.5l-164 1v-244h164
q26 -1 41.5 -17.5t15.5 -46.5t-15.5 -46.5t-41.5 -16.5l-164 1v-155q0 -33 -18.5 -51t-50.5 -18q-31 0 -50 18t-19 51v0z" />
    <glyph glyph-name="glyph262" unicode="&#x2022;" horiz-adv-x="500" 
d="M72 356q0 73 52.5 125t125.5 52q74 0 126 -52t52 -126q0 -73 -52 -125.5t-126 -52.5q-73 0 -125.5 52.5t-52.5 125.5v1z" />
    <glyph glyph-name="fraction" unicode="&#x2026;" horiz-adv-x="1000" 
d="M89 66q0 31 23 54t55 23t55 -23t23 -55t-23 -54.5t-55 -22.5t-55 22.5t-23 54.5v1zM422 66q0 31 23 54t55 23t55 -23t23 -55t-23 -54.5t-55 -22.5t-55 22.5t-23 54.5v1zM755 66q0 31 23 54t55 23t55 -23t23 -55t-23 -54.5t-55 -22.5t-55 22.5t-23 54.5v1z" />
    <glyph glyph-name="circumflex" unicode="&#x2030;" horiz-adv-x="1074" 
d="M149 74l331 624q2 3 3.5 6t3.5 5q8 12 16.5 16t22.5 4q23 0 41 -16.5t18 -39.5v-1.5v-1.5q0 -5 -1.5 -11t-6.5 -16l-336 -628l-7 -10.5t-6 -7.5q-6 -7 -13 -11t-19 -4q-3 0 -5.5 0.5t-5.5 0.5q-17 5 -31.5 19.5t-14.5 33.5q0 8 2 16t5 14q1 2 1.5 4t1.5 3v1zM537 -12
q-67 0 -110.5 47.5t-43.5 112.5t43.5 113.5t110.5 48.5t110.5 -48.5t43.5 -113.5t-43.5 -112.5t-110.5 -47.5v0zM537 90q25 -1 38.5 16.5t13.5 41.5t-13.5 42t-38.5 18t-38.5 -18t-13.5 -42t13.5 -41.5t38.5 -17.5v1zM889 -12q-67 0 -110.5 47.5t-43.5 112.5t43.5 113.5
t110.5 48.5t110.5 -48.5t43.5 -113.5t-43.5 -112.5t-110.5 -47.5v0zM889 90q25 -1 38.5 16.5t13.5 41.5t-13.5 42t-38.5 18t-38.5 -18t-13.5 -42t13.5 -41.5t38.5 -17.5v1zM185 401q-67 -1 -110.5 47t-43.5 113t43.5 113.5t110.5 48.5t110.5 -48.5t43.5 -113.5t-43.5 -113
t-110.5 -48v1zM185 503q25 -1 38.5 16.5t13.5 41.5t-13.5 42t-38.5 18t-38.5 -18t-13.5 -42t13.5 -41.5t38.5 -17.5v1z" />
    <glyph glyph-name="Igrave" unicode="&#x2039;" horiz-adv-x="296" 
d="M169 281l79 -119q7 -11 9 -19.5t2 -15.5q0 -26 -16.5 -44.5t-43.5 -18.5q-15 0 -28.5 6.5t-21.5 18.5l-103 160q-3 4 -5 10t-3 13q-1 3 -1 6v6q0 4 1 9t2 9q3 7 6.5 14t7.5 13q2 3 3.5 6t3.5 5l97 138q8 7 18 11.5t25 4.5q27 0 42.5 -16.5t15.5 -38.5q0 -10 -2 -19.5
t-9 -18.5l-79 -120v0z" />
    <glyph glyph-name="Oacute" unicode="&#x203a;" horiz-adv-x="296" 
d="M48 158l79 121l-79 119q-7 9 -9 17.5t-2 15.5q0 26 16.5 44.5t43.5 18.5q15 0 28.5 -6.5t21.5 -18.5l103 -158q4 -6 5.5 -12t2.5 -13q1 -3 1 -6v-6q0 -4 -1 -9t-2 -9q-3 -7 -6.5 -14t-7.5 -13q-2 -3 -3.5 -6t-3.5 -5l-97 -136q-7 -9 -17.5 -13.5t-25.5 -4.5
q-27 0 -42.5 16.5t-15.5 38.5q0 10 2 19.5t9 18.5v1z" />
    <glyph glyph-name="exclamdbl" unicode="&#x203c;" 
 />
    <glyph glyph-name="uni207F" unicode="&#x207f;" 
 />
    <glyph glyph-name="franc" unicode="&#x20a3;" 
 />
    <glyph glyph-name="peseta" unicode="&#x20a7;" 
 />
    <glyph glyph-name="trademark" unicode="&#x2122;" horiz-adv-x="1000" 
d="M166 360v262h-79q-19 -1 -32 10.5t-13 33.5q0 23 13 34t32 11l278 1q20 -1 32.5 -12t12.5 -34q0 -22 -12.5 -33.5t-32.5 -11.5l-79 1v-262q0 -28 -16 -44.5t-44 -16.5t-44 16.5t-16 43.5v1zM468 360v296q0 25 18.5 43t66.5 18q28 0 49 -10t40 -52l71 -181l71 182
q19 41 40 51t49 10q48 0 66.5 -18t18.5 -44v-295q0 -28 -11 -44.5t-43 -16.5t-43 16.5t-11 43.5v209h-2l-72 -208l-1.5 -4.5t-0.5 -2.5q-9 -23 -20.5 -38.5t-40.5 -15.5t-40.5 15t-20.5 39q0 1 -0.5 2.5t-1.5 3.5l-72 209h-2v-208q0 -28 -11 -44.5t-43 -16.5t-43 16.5
t-11 43.5v1z" />
    <glyph glyph-name="arrowleft" unicode="&#x2190;" 
 />
    <glyph glyph-name="arrowup" unicode="&#x2191;" 
 />
    <glyph glyph-name="glyph257" unicode="&#x2192;" horiz-adv-x="500" 
 />
    <glyph glyph-name="arrowdown" unicode="&#x2193;" 
 />
    <glyph glyph-name="arrowboth" unicode="&#x2194;" 
 />
    <glyph glyph-name="arrowupdn" unicode="&#x2195;" 
 />
    <glyph glyph-name="arrowupdnbse" unicode="&#x21a8;" 
 />
    <glyph glyph-name="questiondown" unicode="&#x2202;" 
 />
    <glyph glyph-name="quoteright" unicode="&#x2206;" 
 />
    <glyph glyph-name="florin" unicode="&#x220f;" 
 />
    <glyph glyph-name="minus" unicode="&#x2212;" 
 />
    <glyph glyph-name="Icircumflex" unicode="&#x2215;" horiz-adv-x="166" 
d="M-130 74l331 624q2 3 3.5 6t3.5 5q8 12 16.5 16t22.5 4q23 0 41 -16.5t18 -39.5v-1.5v-1.5q0 -5 -1.5 -11t-6.5 -16l-336 -628q-3 -6 -6 -10.5t-6 -7.5q-6 -7 -13 -11t-19 -4q-3 0 -5.5 0.5t-5.5 0.5q-17 5 -31.5 19.5t-14.5 33.5q0 8 2 16t5 14q1 2 1.5 4t1.5 3z" />
    <glyph glyph-name="Ucircumflex" unicode="&#x2219;" 
d="M134 359q32 -1 55 -24t23 -55q0 -33 -23 -55.5t-55 -22.5t-55 23t-23 55t23 55t55 23v1z" />
    <glyph glyph-name="quotedblleft" unicode="&#x221a;" 
 />
    <glyph glyph-name="yen" unicode="&#x221e;" 
 />
    <glyph glyph-name="orthogonal" unicode="&#x221f;" 
 />
    <glyph glyph-name="intersection" unicode="&#x2229;" 
 />
    <glyph glyph-name="guillemotright" unicode="&#x222b;" 
 />
    <glyph glyph-name="quoteleft" unicode="&#x2248;" 
 />
    <glyph glyph-name="AE" unicode="&#x2260;" 
 />
    <glyph glyph-name="equivalence" unicode="&#x2261;" 
 />
    <glyph glyph-name="ordfeminine" unicode="&#x2264;" 
 />
    <glyph glyph-name="ordmasculine" unicode="&#x2265;" 
 />
    <glyph glyph-name="glyph258" unicode="&#x2302;" 
 />
    <glyph glyph-name="revlogicalnot" unicode="&#x2310;" 
 />
    <glyph glyph-name="integraltp" unicode="&#x2320;" 
 />
    <glyph glyph-name="integralbt" unicode="&#x2321;" 
 />
    <glyph glyph-name="SF100000" unicode="&#x2500;" 
 />
    <glyph glyph-name="SF110000" unicode="&#x2502;" 
 />
    <glyph glyph-name="SF010000" unicode="&#x250c;" 
 />
    <glyph glyph-name="SF030000" unicode="&#x2510;" 
 />
    <glyph glyph-name="SF020000" unicode="&#x2514;" 
 />
    <glyph glyph-name="SF040000" unicode="&#x2518;" 
 />
    <glyph glyph-name="SF080000" unicode="&#x251c;" 
 />
    <glyph glyph-name="SF090000" unicode="&#x2524;" 
 />
    <glyph glyph-name="SF060000" unicode="&#x252c;" 
 />
    <glyph glyph-name="SF070000" unicode="&#x2534;" 
 />
    <glyph glyph-name="SF050000" unicode="&#x253c;" 
 />
    <glyph glyph-name="SF430000" unicode="&#x2550;" 
 />
    <glyph glyph-name="SF240000" unicode="&#x2551;" 
 />
    <glyph glyph-name="SF510000" unicode="&#x2552;" 
 />
    <glyph glyph-name="SF520000" unicode="&#x2553;" 
 />
    <glyph glyph-name="SF390000" unicode="&#x2554;" 
 />
    <glyph glyph-name="SF220000" unicode="&#x2555;" 
 />
    <glyph glyph-name="SF210000" unicode="&#x2556;" 
 />
    <glyph glyph-name="SF250000" unicode="&#x2557;" 
 />
    <glyph glyph-name="SF500000" unicode="&#x2558;" 
 />
    <glyph glyph-name="SF490000" unicode="&#x2559;" 
 />
    <glyph glyph-name="SF380000" unicode="&#x255a;" 
 />
    <glyph glyph-name="SF280000" unicode="&#x255b;" 
 />
    <glyph glyph-name="SF270000" unicode="&#x255c;" 
 />
    <glyph glyph-name="SF260000" unicode="&#x255d;" 
 />
    <glyph glyph-name="SF360000" unicode="&#x255e;" 
 />
    <glyph glyph-name="SF370000" unicode="&#x255f;" 
 />
    <glyph glyph-name="SF420000" unicode="&#x2560;" 
 />
    <glyph glyph-name="SF190000" unicode="&#x2561;" 
 />
    <glyph glyph-name="SF200000" unicode="&#x2562;" 
 />
    <glyph glyph-name="SF230000" unicode="&#x2563;" 
 />
    <glyph glyph-name="SF470000" unicode="&#x2564;" 
 />
    <glyph glyph-name="SF480000" unicode="&#x2565;" 
 />
    <glyph glyph-name="SF410000" unicode="&#x2566;" 
 />
    <glyph glyph-name="SF450000" unicode="&#x2567;" 
 />
    <glyph glyph-name="SF460000" unicode="&#x2568;" 
 />
    <glyph glyph-name="SF400000" unicode="&#x2569;" 
 />
    <glyph glyph-name="SF540000" unicode="&#x256a;" 
 />
    <glyph glyph-name="SF530000" unicode="&#x256b;" 
 />
    <glyph glyph-name="SF440000" unicode="&#x256c;" 
 />
    <glyph glyph-name="upblock" unicode="&#x2580;" 
 />
    <glyph glyph-name="dnblock" unicode="&#x2584;" 
 />
    <glyph glyph-name="block" unicode="&#x2588;" 
 />
    <glyph glyph-name="lfblock" unicode="&#x258c;" 
 />
    <glyph glyph-name="rtblock" unicode="&#x2590;" 
 />
    <glyph glyph-name="ltshade" unicode="&#x2591;" 
 />
    <glyph glyph-name="shade" unicode="&#x2592;" 
 />
    <glyph glyph-name="dkshade" unicode="&#x2593;" 
 />
    <glyph glyph-name="glyph261" unicode="&#x25a0;" horiz-adv-x="500" 
 />
    <glyph glyph-name="filledrect" unicode="&#x25ac;" 
 />
    <glyph glyph-name="triagup" unicode="&#x25b2;" 
 />
    <glyph glyph-name="triagrt" unicode="&#x25ba;" 
 />
    <glyph glyph-name="triagdn" unicode="&#x25bc;" 
 />
    <glyph glyph-name="triaglf" unicode="&#x25c4;" 
 />
    <glyph glyph-name="Edieresis" unicode="&#x25ca;" 
 />
    <glyph glyph-name="circle" unicode="&#x25cb;" 
 />
    <glyph glyph-name="invbullet" unicode="&#x25d8;" 
 />
    <glyph glyph-name="invcircle" unicode="&#x25d9;" 
 />
    <glyph glyph-name="smileface" unicode="&#x263a;" 
 />
    <glyph glyph-name="invsmileface" unicode="&#x263b;" 
 />
    <glyph glyph-name="sun" unicode="&#x263c;" 
 />
    <glyph glyph-name="female" unicode="&#x2640;" 
 />
    <glyph glyph-name="male" unicode="&#x2642;" 
 />
    <glyph glyph-name="spade" unicode="&#x2660;" 
 />
    <glyph glyph-name="club" unicode="&#x2663;" 
 />
    <glyph glyph-name="heart" unicode="&#x2665;" 
 />
    <glyph glyph-name="diamond" unicode="&#x2666;" 
 />
    <glyph glyph-name="musicalnote" unicode="&#x266a;" 
 />
    <glyph glyph-name="musicalnotedbl" unicode="&#x266b;" 
 />
    <glyph glyph-name="Scaron" unicode="&#xf000;" 
 />
    <glyph glyph-name="Ocircumflex" unicode="&#xf001;" horiz-adv-x="519" 
d="M74 74v332h-32q-29 -1 -45.5 16t-16.5 46q0 27 17.5 45t44.5 18l32 1v74q0 79 42.5 121t108.5 42q5 0 10 -0.5t10 -0.5q26 -4 47 -18.5t21 -45.5t-13.5 -46t-39.5 -15q-18 0 -30 -6.5t-12 -46.5v-58h35q32 -1 51 -15t19 -49q0 -47 -19 -55t-51 -8l-35 1v-332
q0 -37 -20 -58.5t-52 -21.5q-31 0 -51.5 21.5t-20.5 57.5v1zM336 74v384q0 35 20.5 57t51.5 22q32 0 52 -22t20 -58v-383q0 -37 -20 -58.5t-52 -21.5q-31 0 -51.5 21.5t-20.5 57.5v1zM408 754q32 -1 56.5 -24.5t24.5 -55.5q0 -34 -23.5 -58.5t-57.5 -24.5q-32 0 -56.5 25
t-24.5 58q0 31 24.5 55t56.5 24v1z" />
    <glyph glyph-name="Ograve" unicode="&#xf002;" horiz-adv-x="519" 
d="M74 74v332h-32q-29 -1 -45.5 16t-16.5 46q0 27 17.5 45t44.5 18l32 1v74q0 79 42.5 121t108.5 42q5 0 10 -0.5t10 -0.5q26 -4 47 -18.5t21 -45.5t-13.5 -46t-39.5 -15q-18 0 -30 -6.5t-12 -46.5v-58h35q32 -1 51 -15t19 -49q0 -47 -19 -55t-51 -8l-35 1v-332
q0 -37 -20 -58.5t-52 -21.5q-31 0 -51.5 21.5t-20.5 57.5v1zM336 74v616q0 35 20.5 57t51.5 22q32 0 52 -22t20 -58v-615q0 -37 -20 -58.5t-52 -21.5q-31 0 -51.5 21.5t-20.5 57.5v1z" />
    <glyph glyph-name="degree" horiz-adv-x="400" 
d="M39 563q0 66 47 113t114 47t114 -47t47 -114t-47 -114t-114 -47t-114 47t-47 114v1zM117 563q0 -35 24.5 -59.5t58.5 -24.5t58.5 24.5t24.5 58.5t-24.5 58.5t-58.5 24.5t-58.5 -24.5t-24.5 -58.5v1z" />
    <glyph glyph-name="bullet" horiz-adv-x="500" 
d="M72 356q0 73 52.5 125t125.5 52q74 0 126 -52t52 -126q0 -73 -52 -125.5t-126 -52.5q-73 0 -125.5 52.5t-52.5 125.5v1z" />
    <glyph glyph-name="daggerdbl" horiz-adv-x="500" 
d="M60 350h380q28 -1 44 -17.5t16 -43.5t-16 -43.5t-44 -16.5l-380 1q-28 -1 -44 15.5t-16 43.5t16 43.5t44 16.5v1z" />
    </font>
</defs>
</svg>
